<?xml version="1.0" encoding="UTF-8" standalone="no"?>
<!-- Created with Inkscape (http://www.inkscape.org/) -->

<svg
   xmlns:dc="http://purl.org/dc/elements/1.1/"
   xmlns:cc="http://creativecommons.org/ns#"
   xmlns:rdf="http://www.w3.org/1999/02/22-rdf-syntax-ns#"
   xmlns:svg="http://www.w3.org/2000/svg"
   xmlns="http://www.w3.org/2000/svg"
   xmlns:sodipodi="http://sodipodi.sourceforge.net/DTD/sodipodi-0.dtd"
   xmlns:inkscape="http://www.inkscape.org/namespaces/inkscape"
   width="256"
   height="256"
   id="svg2"
   version="1.1"
   inkscape:version="0.48.1 r9760"
   sodipodi:docname="etama4.svg">
  <defs
     id="defs4">
    <filter
       inkscape:collect="always"
       id="filter3763">
      <feGaussianBlur
         inkscape:collect="always"
         stdDeviation="1.2506951"
         id="feGaussianBlur3765" />
    </filter>
    <filter
       inkscape:collect="always"
       id="filter3773">
      <feGaussianBlur
         inkscape:collect="always"
         stdDeviation="0.94133587"
         id="feGaussianBlur3775" />
    </filter>
    <filter
       inkscape:collect="always"
       id="filter4224">
      <feGaussianBlur
         inkscape:collect="always"
         stdDeviation="2.1587033"
         id="feGaussianBlur4226" />
    </filter>
    <filter
       inkscape:collect="always"
       id="filter4238">
      <feGaussianBlur
         inkscape:collect="always"
         stdDeviation="1.0780679"
         id="feGaussianBlur4240" />
    </filter>
    <filter
       inkscape:collect="always"
       id="filter4275"
       x="-0.36"
       width="1.72"
       y="-0.36"
       height="1.72">
      <feGaussianBlur
         inkscape:collect="always"
         stdDeviation="1.986236"
         id="feGaussianBlur4277" />
    </filter>
    <filter
       inkscape:collect="always"
       id="filter4557"
       x="-0.96"
       width="2.92"
       y="-0.96"
       height="2.92">
      <feGaussianBlur
         inkscape:collect="always"
         stdDeviation="30.547015"
         id="feGaussianBlur4559" />
    </filter>
    <filter
       inkscape:collect="always"
       id="filter4623">
      <feGaussianBlur
         inkscape:collect="always"
         stdDeviation="0.64"
         id="feGaussianBlur4625" />
    </filter>
  </defs>
  <sodipodi:namedview
     id="base"
     pagecolor="#ffffff"
     bordercolor="#666666"
     borderopacity="1.0"
     inkscape:pageopacity="0.0"
     inkscape:pageshadow="2"
     inkscape:zoom="4"
     inkscape:cx="126.15945"
     inkscape:cy="95.275011"
     inkscape:document-units="px"
     inkscape:current-layer="layer1"
     showgrid="false"
     inkscape:window-width="1280"
     inkscape:window-height="725"
     inkscape:window-x="0"
     inkscape:window-y="25"
     inkscape:window-maximized="1" />
  <metadata
     id="metadata7">
    <rdf:RDF>
      <cc:Work
         rdf:about="">
        <dc:format>image/svg+xml</dc:format>
        <dc:type
           rdf:resource="http://purl.org/dc/dcmitype/StillImage" />
        <dc:title />
      </cc:Work>
    </rdf:RDF>
  </metadata>
  <g
     inkscape:label="Calque 1"
     inkscape:groupmode="layer"
     id="layer1"
     transform="translate(0,-796.36218)">
    <g
       id="g3790"
       transform="translate(-5.3185596,-0.96716001)">
      <path
         transform="matrix(0.9999103,0,0,0.9999103,4.7705855e-4,796.36801)"
         d="m 68.824301,32.964287 c 0,17.398555 -14.104316,31.50287 -31.502871,31.50287 -17.398555,0 -31.5028704,-14.104315 -31.5028704,-31.50287 0,-17.398555 14.1043154,-31.5028708 31.5028704,-31.5028708 17.398555,0 31.502871,14.1043158 31.502871,31.5028708 z"
         sodipodi:ry="31.502871"
         sodipodi:rx="31.502871"
         sodipodi:cy="32.964287"
         sodipodi:cx="37.32143"
         id="path2985"
         style="fill:#ffffff;fill-opacity:1;fill-rule:nonzero;stroke:#000000;stroke-width:1;stroke-linecap:round;stroke-linejoin:miter;stroke-miterlimit:4;stroke-opacity:1;stroke-dasharray:none;stroke-dashoffset:0"
         sodipodi:type="arc" />
      <path
         transform="translate(-12.267302,789.43885)"
         d="m 74.599764,39.890491 c 0,13.814797 -11.199106,25.013903 -25.013903,25.013903 -13.814797,0 -25.013902,-11.199106 -25.013902,-25.013903 0,-13.814796 11.199105,-25.013902 25.013902,-25.013902 13.814797,0 25.013903,11.199106 25.013903,25.013902 z"
         sodipodi:ry="25.013903"
         sodipodi:rx="25.013903"
         sodipodi:cy="39.890491"
         sodipodi:cx="49.585861"
         id="path2989"
         style="fill:#ff0000;fill-opacity:1;fill-rule:nonzero;stroke:none;filter:url(#filter3763)"
         sodipodi:type="arc" />
      <path
         inkscape:connector-curvature="0"
         id="path3767"
         d="m 37.584185,810.50124 c -0.314306,3.11014 -0.800266,8.24936 -0.8125,8.25 -0.01222,6.4e-4 -1.08018,-5.02906 -1.71875,-8.09375 -0.136454,0.0164 -0.270711,0.0432 -0.40625,0.0625 0.176622,3.12916 0.4807,8.24746 0.46875,8.25 -0.01197,0.003 -1.827606,-4.82358 -2.9375,-7.75 -0.135142,0.0383 -0.272363,0.0838 -0.40625,0.125 0.663408,3.06057 1.761415,8.08937 1.75,8.09375 -0.01143,0.004 -2.572318,-4.47312 -4.125,-7.1875 -0.122516,0.057 -0.253932,0.0967 -0.375,0.15625 1.129644,2.90811 3.010631,7.74386 3,7.75 -0.0106,0.006 -3.229107,-4.03042 -5.1875,-6.46875 -0.117475,0.079 -0.228173,0.16847 -0.34375,0.25 1.577037,2.70633 4.165751,7.14856 4.15625,7.15625 -0.0095,0.008 -3.843684,-3.46346 -6.15625,-5.5625 -0.102199,0.0951 -0.212438,0.18394 -0.3125,0.28125 1.974154,2.41808 5.258209,6.39713 5.25,6.40625 -0.0082,0.009 -4.2882,-2.81609 -6.90625,-4.53125 -0.08873,0.11264 -0.163805,0.22906 -0.25,0.34375 2.335427,2.0859 6.16291,5.52099 6.15625,5.53125 -0.0067,0.0103 -4.674758,-2.12067 -7.53125,-3.40625 -0.0702,0.12561 -0.151369,0.24764 -0.21875,0.375 2.630301,1.69318 6.973729,4.45757 6.96875,4.46875 -0.005,0.0112 -4.976989,-1.33319 -8,-2.15625 -0.04912,0.13381 -0.07886,0.27103 -0.125,0.40625 2.873338,1.26541 7.565656,3.33197 7.5625,3.34375 -0.0032,0.0118 -5.142461,-0.56705 -8.25,-0.90625 -0.0261,0.13324 -0.03923,0.27202 -0.0625,0.40625 3.02815,0.79836 8.001278,2.11284 8,2.125 -0.0013,0.0122 -5.119638,0.25482 -8.25,0.40625 -0.005,0.13746 -0.02919,0.26806 -0.03125,0.40625 3.109859,0.31428 8.249359,0.83152 8.25,0.84375 6.42e-4,0.0123 -5.070673,1.051 -8.125,1.6875 0.01617,0.13653 0.04342,0.27063 0.0625,0.40625 3.118078,-0.17591 8.2787,-0.44949 8.28125,-0.4375 0.0025,0.012 -4.823576,1.82761 -7.75,2.9375 0.03904,0.13732 0.08294,0.27023 0.125,0.40625 3.06057,-0.66341 8.089368,-1.76141 8.09375,-1.75 0.0044,0.0114 -4.468265,2.53834 -7.1875,4.09375 0.05917,0.12767 0.125571,0.2489 0.1875,0.375 2.921711,-1.13505 7.712642,-2.97933 7.71875,-2.96875 0.0061,0.0106 -4.030423,3.22911 -6.46875,5.1875 0.07987,0.11881 0.167511,0.22689 0.25,0.34375 2.706327,-1.57704 7.148557,-4.16575 7.15625,-4.15625 0.0077,0.01 -3.462012,3.81086 -5.5625,6.125 0.09509,0.1022 0.183936,0.21244 0.28125,0.3125 2.416344,-1.97272 6.428376,-5.25821 6.4375,-5.25 0.0091,0.008 -2.814864,4.31761 -4.53125,6.9375 0.10361,0.0813 0.207158,0.17082 0.3125,0.25 2.084508,-2.33384 5.520987,-6.19416 5.53125,-6.1875 0.01026,0.007 -2.121751,4.70835 -3.40625,7.5625 0.127028,0.071 0.246179,0.15061 0.375,0.21875 1.692362,-2.629 4.488811,-6.97373 4.5,-6.96875 0.0112,0.005 -1.335384,4.98479 -2.15625,8 0.123856,0.0452 0.249944,0.0824 0.375,0.125 1.261114,-2.86336 3.331928,-7.56567 3.34375,-7.5625 0.01182,0.003 -0.56672,5.10839 -0.90625,8.21875 0.132885,0.026 0.272379,0.0393 0.40625,0.0625 0.798364,-3.02815 2.112839,-8.00128 2.125,-8 0.01216,10e-4 0.254937,5.1537 0.40625,8.28125 0.137455,0.005 0.268058,0.0292 0.40625,0.0312 0.314279,-3.10986 0.831515,-8.24936 0.84375,-8.25 0.01222,-6.4e-4 1.08018,5.02906 1.71875,8.09375 0.136095,-0.0164 0.271065,-0.0432 0.40625,-0.0625 -0.176622,-3.12916 -0.4807,-8.24746 -0.46875,-8.25 0.012,-0.003 1.830366,4.83103 2.9375,7.75 0.135578,-0.0384 0.271934,-0.0837 0.40625,-0.125 -0.661592,-3.0525 -1.761447,-8.08936 -1.75,-8.09375 0.0114,-0.004 2.537144,4.43488 4.09375,7.15625 0.131155,-0.0607 0.27675,-0.0926 0.40625,-0.15625 -1.130643,-2.91062 -3.010622,-7.71262 -3,-7.71875 0.01063,-0.006 3.233247,4.03566 5.1875,6.46875 0.116447,-0.0783 0.229168,-0.16921 0.34375,-0.25 -1.573318,-2.70006 -4.165774,-7.14854 -4.15625,-7.15625 0.0095,-0.008 3.768072,3.42012 6.09375,5.53125 0.103665,-0.0961 0.211024,-0.18284 0.3125,-0.28125 -1.982887,-2.4286 -5.226922,-6.39717 -5.21875,-6.40625 0.0082,-0.009 4.321436,2.81742 6.9375,4.53125 0.08771,-0.11152 0.164775,-0.23022 0.25,-0.34375 -2.336843,-2.08715 -6.162906,-5.48975 -6.15625,-5.5 0.0067,-0.0102 4.673707,2.08894 7.53125,3.375 0.07097,-0.127 0.150656,-0.24621 0.21875,-0.375 -2.630301,-1.69318 -6.973729,-4.45757 -6.96875,-4.46875 0.005,-0.0111 4.943128,1.33246 7.96875,2.15625 0.0459,-0.12525 0.112949,-0.24851 0.15625,-0.375 -2.863358,-1.26111 -7.565668,-3.33193 -7.5625,-3.34375 0.0032,-0.0119 5.150686,0.53676 8.25,0.875 0.02589,-0.13331 0.03944,-0.27195 0.0625,-0.40625 -3.018219,-0.79583 -8.032533,-2.08155 -8.03125,-2.09375 0.0013,-0.0122 5.153291,-0.25492 8.28125,-0.40625 0.0055,-0.14557 0.0291,-0.29111 0.03125,-0.4375 -3.109859,-0.31428 -8.249359,-0.83151 -8.25,-0.84375 -6.4e-4,-0.0122 5.028478,-1.04881 8.09375,-1.6875 -0.01643,-0.13645 -0.04317,-0.27071 -0.0625,-0.40625 -3.129159,0.17662 -8.24746,0.4807 -8.25,0.46875 -0.0026,-0.012 4.831033,-1.83037 7.75,-2.9375 -0.03825,-0.13514 -0.08383,-0.27236 -0.125,-0.40625 -3.052504,0.66159 -8.089356,1.76145 -8.09375,1.75 -0.0044,-0.0114 4.429945,-2.56562 7.15625,-4.125 -0.05884,-0.12654 -0.12595,-0.25 -0.1875,-0.375 -2.930181,1.13842 -7.681411,3.01055 -7.6875,3 -0.0061,-0.0106 4.035662,-3.23325 6.46875,-5.1875 -0.07925,-0.11824 -0.168164,-0.22743 -0.25,-0.34375 -2.700061,1.57332 -7.148538,4.16577 -7.15625,4.15625 -0.0077,-0.009 3.421511,-3.80083 5.53125,-6.125 -0.09496,-0.10232 -0.184058,-0.21232 -0.28125,-0.3125 -2.428598,1.98289 -6.397174,5.22692 -6.40625,5.21875 -0.0091,-0.008 2.821395,-4.32741 4.53125,-6.9375 -0.106461,-0.0835 -0.235462,-0.13749 -0.34375,-0.21875 -2.087146,2.33684 -5.489751,6.16291 -5.5,6.15625 -0.01031,-0.007 2.127591,-4.75231 3.40625,-7.59375 -0.121644,-0.0679 -0.251714,-0.12229 -0.375,-0.1875 -1.688577,2.62302 -4.488785,7.00499 -4.5,7 -0.01117,-0.005 1.333192,-4.97699 2.15625,-8 -0.128016,-0.0468 -0.245701,-0.11221 -0.375,-0.15625 -1.260079,2.86096 -3.331917,7.59692 -3.34375,7.59375 -0.01183,-0.003 0.535766,-5.14216 0.875,-8.25 -0.133313,-0.0259 -0.271948,-0.0394 -0.40625,-0.0625 -0.798542,3.02885 -2.081592,8.00128 -2.09375,8 -0.01215,-10e-4 -0.254807,-5.11923 -0.40625,-8.25 -0.145567,-0.005 -0.291106,-0.0291 -0.4375,-0.0312 z"
         style="fill:#000000;fill-opacity:1;fill-rule:nonzero;stroke:none;filter:url(#filter3773)" />
    </g>
    <g
       transform="translate(58.68144,-0.96716001)"
       id="g3795">
      <path
         sodipodi:type="arc"
         style="fill:#ffffff;fill-opacity:1;fill-rule:nonzero;stroke:#000000;stroke-width:1;stroke-linecap:round;stroke-linejoin:miter;stroke-miterlimit:4;stroke-opacity:1;stroke-dasharray:none;stroke-dashoffset:0"
         id="path3797"
         sodipodi:cx="37.32143"
         sodipodi:cy="32.964287"
         sodipodi:rx="31.502871"
         sodipodi:ry="31.502871"
         d="m 68.824301,32.964287 c 0,17.398555 -14.104316,31.50287 -31.502871,31.50287 -17.398555,0 -31.5028704,-14.104315 -31.5028704,-31.50287 0,-17.398555 14.1043154,-31.5028708 31.5028704,-31.5028708 17.398555,0 31.502871,14.1043158 31.502871,31.5028708 z"
         transform="matrix(0.9999103,0,0,0.9999103,4.7705855e-4,796.36801)" />
      <path
         sodipodi:type="arc"
         style="fill:#0000ff;fill-opacity:1;fill-rule:nonzero;stroke:none;filter:url(#filter3763)"
         id="path3799"
         sodipodi:cx="49.585861"
         sodipodi:cy="39.890491"
         sodipodi:rx="25.013903"
         sodipodi:ry="25.013903"
         d="m 74.599764,39.890491 c 0,13.814797 -11.199106,25.013903 -25.013903,25.013903 -13.814797,0 -25.013902,-11.199106 -25.013902,-25.013903 0,-13.814796 11.199105,-25.013902 25.013902,-25.013902 13.814797,0 25.013903,11.199106 25.013903,25.013902 z"
         transform="translate(-12.267302,789.43885)" />
      <path
         style="fill:#000000;fill-opacity:1;fill-rule:nonzero;stroke:none;filter:url(#filter3773)"
         d="m 37.584185,810.50124 c -0.314306,3.11014 -0.800266,8.24936 -0.8125,8.25 -0.01222,6.4e-4 -1.08018,-5.02906 -1.71875,-8.09375 -0.136454,0.0164 -0.270711,0.0432 -0.40625,0.0625 0.176622,3.12916 0.4807,8.24746 0.46875,8.25 -0.01197,0.003 -1.827606,-4.82358 -2.9375,-7.75 -0.135142,0.0383 -0.272363,0.0838 -0.40625,0.125 0.663408,3.06057 1.761415,8.08937 1.75,8.09375 -0.01143,0.004 -2.572318,-4.47312 -4.125,-7.1875 -0.122516,0.057 -0.253932,0.0967 -0.375,0.15625 1.129644,2.90811 3.010631,7.74386 3,7.75 -0.0106,0.006 -3.229107,-4.03042 -5.1875,-6.46875 -0.117475,0.079 -0.228173,0.16847 -0.34375,0.25 1.577037,2.70633 4.165751,7.14856 4.15625,7.15625 -0.0095,0.008 -3.843684,-3.46346 -6.15625,-5.5625 -0.102199,0.0951 -0.212438,0.18394 -0.3125,0.28125 1.974154,2.41808 5.258209,6.39713 5.25,6.40625 -0.0082,0.009 -4.2882,-2.81609 -6.90625,-4.53125 -0.08873,0.11264 -0.163805,0.22906 -0.25,0.34375 2.335427,2.0859 6.16291,5.52099 6.15625,5.53125 -0.0067,0.0103 -4.674758,-2.12067 -7.53125,-3.40625 -0.0702,0.12561 -0.151369,0.24764 -0.21875,0.375 2.630301,1.69318 6.973729,4.45757 6.96875,4.46875 -0.005,0.0112 -4.976989,-1.33319 -8,-2.15625 -0.04912,0.13381 -0.07886,0.27103 -0.125,0.40625 2.873338,1.26541 7.565656,3.33197 7.5625,3.34375 -0.0032,0.0118 -5.142461,-0.56705 -8.25,-0.90625 -0.0261,0.13324 -0.03923,0.27202 -0.0625,0.40625 3.02815,0.79836 8.001278,2.11284 8,2.125 -0.0013,0.0122 -5.119638,0.25482 -8.25,0.40625 -0.005,0.13746 -0.02919,0.26806 -0.03125,0.40625 3.109859,0.31428 8.249359,0.83152 8.25,0.84375 6.42e-4,0.0123 -5.070673,1.051 -8.125,1.6875 0.01617,0.13653 0.04342,0.27063 0.0625,0.40625 3.118078,-0.17591 8.2787,-0.44949 8.28125,-0.4375 0.0025,0.012 -4.823576,1.82761 -7.75,2.9375 0.03904,0.13732 0.08294,0.27023 0.125,0.40625 3.06057,-0.66341 8.089368,-1.76141 8.09375,-1.75 0.0044,0.0114 -4.468265,2.53834 -7.1875,4.09375 0.05917,0.12767 0.125571,0.2489 0.1875,0.375 2.921711,-1.13505 7.712642,-2.97933 7.71875,-2.96875 0.0061,0.0106 -4.030423,3.22911 -6.46875,5.1875 0.07987,0.11881 0.167511,0.22689 0.25,0.34375 2.706327,-1.57704 7.148557,-4.16575 7.15625,-4.15625 0.0077,0.01 -3.462012,3.81086 -5.5625,6.125 0.09509,0.1022 0.183936,0.21244 0.28125,0.3125 2.416344,-1.97272 6.428376,-5.25821 6.4375,-5.25 0.0091,0.008 -2.814864,4.31761 -4.53125,6.9375 0.10361,0.0813 0.207158,0.17082 0.3125,0.25 2.084508,-2.33384 5.520987,-6.19416 5.53125,-6.1875 0.01026,0.007 -2.121751,4.70835 -3.40625,7.5625 0.127028,0.071 0.246179,0.15061 0.375,0.21875 1.692362,-2.629 4.488811,-6.97373 4.5,-6.96875 0.0112,0.005 -1.335384,4.98479 -2.15625,8 0.123856,0.0452 0.249944,0.0824 0.375,0.125 1.261114,-2.86336 3.331928,-7.56567 3.34375,-7.5625 0.01182,0.003 -0.56672,5.10839 -0.90625,8.21875 0.132885,0.026 0.272379,0.0393 0.40625,0.0625 0.798364,-3.02815 2.112839,-8.00128 2.125,-8 0.01216,10e-4 0.254937,5.1537 0.40625,8.28125 0.137455,0.005 0.268058,0.0292 0.40625,0.0312 0.314279,-3.10986 0.831515,-8.24936 0.84375,-8.25 0.01222,-6.4e-4 1.08018,5.02906 1.71875,8.09375 0.136095,-0.0164 0.271065,-0.0432 0.40625,-0.0625 -0.176622,-3.12916 -0.4807,-8.24746 -0.46875,-8.25 0.012,-0.003 1.830366,4.83103 2.9375,7.75 0.135578,-0.0384 0.271934,-0.0837 0.40625,-0.125 -0.661592,-3.0525 -1.761447,-8.08936 -1.75,-8.09375 0.0114,-0.004 2.537144,4.43488 4.09375,7.15625 0.131155,-0.0607 0.27675,-0.0926 0.40625,-0.15625 -1.130643,-2.91062 -3.010622,-7.71262 -3,-7.71875 0.01063,-0.006 3.233247,4.03566 5.1875,6.46875 0.116447,-0.0783 0.229168,-0.16921 0.34375,-0.25 -1.573318,-2.70006 -4.165774,-7.14854 -4.15625,-7.15625 0.0095,-0.008 3.768072,3.42012 6.09375,5.53125 0.103665,-0.0961 0.211024,-0.18284 0.3125,-0.28125 -1.982887,-2.4286 -5.226922,-6.39717 -5.21875,-6.40625 0.0082,-0.009 4.321436,2.81742 6.9375,4.53125 0.08771,-0.11152 0.164775,-0.23022 0.25,-0.34375 -2.336843,-2.08715 -6.162906,-5.48975 -6.15625,-5.5 0.0067,-0.0102 4.673707,2.08894 7.53125,3.375 0.07097,-0.127 0.150656,-0.24621 0.21875,-0.375 -2.630301,-1.69318 -6.973729,-4.45757 -6.96875,-4.46875 0.005,-0.0111 4.943128,1.33246 7.96875,2.15625 0.0459,-0.12525 0.112949,-0.24851 0.15625,-0.375 -2.863358,-1.26111 -7.565668,-3.33193 -7.5625,-3.34375 0.0032,-0.0119 5.150686,0.53676 8.25,0.875 0.02589,-0.13331 0.03944,-0.27195 0.0625,-0.40625 -3.018219,-0.79583 -8.032533,-2.08155 -8.03125,-2.09375 0.0013,-0.0122 5.153291,-0.25492 8.28125,-0.40625 0.0055,-0.14557 0.0291,-0.29111 0.03125,-0.4375 -3.109859,-0.31428 -8.249359,-0.83151 -8.25,-0.84375 -6.4e-4,-0.0122 5.028478,-1.04881 8.09375,-1.6875 -0.01643,-0.13645 -0.04317,-0.27071 -0.0625,-0.40625 -3.129159,0.17662 -8.24746,0.4807 -8.25,0.46875 -0.0026,-0.012 4.831033,-1.83037 7.75,-2.9375 -0.03825,-0.13514 -0.08383,-0.27236 -0.125,-0.40625 -3.052504,0.66159 -8.089356,1.76145 -8.09375,1.75 -0.0044,-0.0114 4.429945,-2.56562 7.15625,-4.125 -0.05884,-0.12654 -0.12595,-0.25 -0.1875,-0.375 -2.930181,1.13842 -7.681411,3.01055 -7.6875,3 -0.0061,-0.0106 4.035662,-3.23325 6.46875,-5.1875 -0.07925,-0.11824 -0.168164,-0.22743 -0.25,-0.34375 -2.700061,1.57332 -7.148538,4.16577 -7.15625,4.15625 -0.0077,-0.009 3.421511,-3.80083 5.53125,-6.125 -0.09496,-0.10232 -0.184058,-0.21232 -0.28125,-0.3125 -2.428598,1.98289 -6.397174,5.22692 -6.40625,5.21875 -0.0091,-0.008 2.821395,-4.32741 4.53125,-6.9375 -0.106461,-0.0835 -0.235462,-0.13749 -0.34375,-0.21875 -2.087146,2.33684 -5.489751,6.16291 -5.5,6.15625 -0.01031,-0.007 2.127591,-4.75231 3.40625,-7.59375 -0.121644,-0.0679 -0.251714,-0.12229 -0.375,-0.1875 -1.688577,2.62302 -4.488785,7.00499 -4.5,7 -0.01117,-0.005 1.333192,-4.97699 2.15625,-8 -0.128016,-0.0468 -0.245701,-0.11221 -0.375,-0.15625 -1.260079,2.86096 -3.331917,7.59692 -3.34375,7.59375 -0.01183,-0.003 0.535766,-5.14216 0.875,-8.25 -0.133313,-0.0259 -0.271948,-0.0394 -0.40625,-0.0625 -0.798542,3.02885 -2.081592,8.00128 -2.09375,8 -0.01215,-10e-4 -0.254807,-5.11923 -0.40625,-8.25 -0.145567,-0.005 -0.291106,-0.0291 -0.4375,-0.0312 z"
         id="path3801"
         inkscape:connector-curvature="0" />
    </g>
    <g
       id="g3803"
       transform="translate(122.68144,-0.96716001)">
      <path
         transform="matrix(0.9999103,0,0,0.9999103,4.7705855e-4,796.36801)"
         d="m 68.824301,32.964287 c 0,17.398555 -14.104316,31.50287 -31.502871,31.50287 -17.398555,0 -31.5028704,-14.104315 -31.5028704,-31.50287 0,-17.398555 14.1043154,-31.5028708 31.5028704,-31.5028708 17.398555,0 31.502871,14.1043158 31.502871,31.5028708 z"
         sodipodi:ry="31.502871"
         sodipodi:rx="31.502871"
         sodipodi:cy="32.964287"
         sodipodi:cx="37.32143"
         id="path3805"
         style="fill:#ffffff;fill-opacity:1;fill-rule:nonzero;stroke:#000000;stroke-width:1;stroke-linecap:round;stroke-linejoin:miter;stroke-miterlimit:4;stroke-opacity:1;stroke-dasharray:none;stroke-dashoffset:0"
         sodipodi:type="arc" />
      <path
         transform="translate(-12.267302,789.43885)"
         d="m 74.599764,39.890491 c 0,13.814797 -11.199106,25.013903 -25.013903,25.013903 -13.814797,0 -25.013902,-11.199106 -25.013902,-25.013903 0,-13.814796 11.199105,-25.013902 25.013902,-25.013902 13.814797,0 25.013903,11.199106 25.013903,25.013902 z"
         sodipodi:ry="25.013903"
         sodipodi:rx="25.013903"
         sodipodi:cy="39.890491"
         sodipodi:cx="49.585861"
         id="path3807"
         style="fill:#00ff00;fill-opacity:1;fill-rule:nonzero;stroke:none;filter:url(#filter3763)"
         sodipodi:type="arc" />
      <path
         inkscape:connector-curvature="0"
         id="path3809"
         d="m 37.584185,810.50124 c -0.314306,3.11014 -0.800266,8.24936 -0.8125,8.25 -0.01222,6.4e-4 -1.08018,-5.02906 -1.71875,-8.09375 -0.136454,0.0164 -0.270711,0.0432 -0.40625,0.0625 0.176622,3.12916 0.4807,8.24746 0.46875,8.25 -0.01197,0.003 -1.827606,-4.82358 -2.9375,-7.75 -0.135142,0.0383 -0.272363,0.0838 -0.40625,0.125 0.663408,3.06057 1.761415,8.08937 1.75,8.09375 -0.01143,0.004 -2.572318,-4.47312 -4.125,-7.1875 -0.122516,0.057 -0.253932,0.0967 -0.375,0.15625 1.129644,2.90811 3.010631,7.74386 3,7.75 -0.0106,0.006 -3.229107,-4.03042 -5.1875,-6.46875 -0.117475,0.079 -0.228173,0.16847 -0.34375,0.25 1.577037,2.70633 4.165751,7.14856 4.15625,7.15625 -0.0095,0.008 -3.843684,-3.46346 -6.15625,-5.5625 -0.102199,0.0951 -0.212438,0.18394 -0.3125,0.28125 1.974154,2.41808 5.258209,6.39713 5.25,6.40625 -0.0082,0.009 -4.2882,-2.81609 -6.90625,-4.53125 -0.08873,0.11264 -0.163805,0.22906 -0.25,0.34375 2.335427,2.0859 6.16291,5.52099 6.15625,5.53125 -0.0067,0.0103 -4.674758,-2.12067 -7.53125,-3.40625 -0.0702,0.12561 -0.151369,0.24764 -0.21875,0.375 2.630301,1.69318 6.973729,4.45757 6.96875,4.46875 -0.005,0.0112 -4.976989,-1.33319 -8,-2.15625 -0.04912,0.13381 -0.07886,0.27103 -0.125,0.40625 2.873338,1.26541 7.565656,3.33197 7.5625,3.34375 -0.0032,0.0118 -5.142461,-0.56705 -8.25,-0.90625 -0.0261,0.13324 -0.03923,0.27202 -0.0625,0.40625 3.02815,0.79836 8.001278,2.11284 8,2.125 -0.0013,0.0122 -5.119638,0.25482 -8.25,0.40625 -0.005,0.13746 -0.02919,0.26806 -0.03125,0.40625 3.109859,0.31428 8.249359,0.83152 8.25,0.84375 6.42e-4,0.0123 -5.070673,1.051 -8.125,1.6875 0.01617,0.13653 0.04342,0.27063 0.0625,0.40625 3.118078,-0.17591 8.2787,-0.44949 8.28125,-0.4375 0.0025,0.012 -4.823576,1.82761 -7.75,2.9375 0.03904,0.13732 0.08294,0.27023 0.125,0.40625 3.06057,-0.66341 8.089368,-1.76141 8.09375,-1.75 0.0044,0.0114 -4.468265,2.53834 -7.1875,4.09375 0.05917,0.12767 0.125571,0.2489 0.1875,0.375 2.921711,-1.13505 7.712642,-2.97933 7.71875,-2.96875 0.0061,0.0106 -4.030423,3.22911 -6.46875,5.1875 0.07987,0.11881 0.167511,0.22689 0.25,0.34375 2.706327,-1.57704 7.148557,-4.16575 7.15625,-4.15625 0.0077,0.01 -3.462012,3.81086 -5.5625,6.125 0.09509,0.1022 0.183936,0.21244 0.28125,0.3125 2.416344,-1.97272 6.428376,-5.25821 6.4375,-5.25 0.0091,0.008 -2.814864,4.31761 -4.53125,6.9375 0.10361,0.0813 0.207158,0.17082 0.3125,0.25 2.084508,-2.33384 5.520987,-6.19416 5.53125,-6.1875 0.01026,0.007 -2.121751,4.70835 -3.40625,7.5625 0.127028,0.071 0.246179,0.15061 0.375,0.21875 1.692362,-2.629 4.488811,-6.97373 4.5,-6.96875 0.0112,0.005 -1.335384,4.98479 -2.15625,8 0.123856,0.0452 0.249944,0.0824 0.375,0.125 1.261114,-2.86336 3.331928,-7.56567 3.34375,-7.5625 0.01182,0.003 -0.56672,5.10839 -0.90625,8.21875 0.132885,0.026 0.272379,0.0393 0.40625,0.0625 0.798364,-3.02815 2.112839,-8.00128 2.125,-8 0.01216,10e-4 0.254937,5.1537 0.40625,8.28125 0.137455,0.005 0.268058,0.0292 0.40625,0.0312 0.314279,-3.10986 0.831515,-8.24936 0.84375,-8.25 0.01222,-6.4e-4 1.08018,5.02906 1.71875,8.09375 0.136095,-0.0164 0.271065,-0.0432 0.40625,-0.0625 -0.176622,-3.12916 -0.4807,-8.24746 -0.46875,-8.25 0.012,-0.003 1.830366,4.83103 2.9375,7.75 0.135578,-0.0384 0.271934,-0.0837 0.40625,-0.125 -0.661592,-3.0525 -1.761447,-8.08936 -1.75,-8.09375 0.0114,-0.004 2.537144,4.43488 4.09375,7.15625 0.131155,-0.0607 0.27675,-0.0926 0.40625,-0.15625 -1.130643,-2.91062 -3.010622,-7.71262 -3,-7.71875 0.01063,-0.006 3.233247,4.03566 5.1875,6.46875 0.116447,-0.0783 0.229168,-0.16921 0.34375,-0.25 -1.573318,-2.70006 -4.165774,-7.14854 -4.15625,-7.15625 0.0095,-0.008 3.768072,3.42012 6.09375,5.53125 0.103665,-0.0961 0.211024,-0.18284 0.3125,-0.28125 -1.982887,-2.4286 -5.226922,-6.39717 -5.21875,-6.40625 0.0082,-0.009 4.321436,2.81742 6.9375,4.53125 0.08771,-0.11152 0.164775,-0.23022 0.25,-0.34375 -2.336843,-2.08715 -6.162906,-5.48975 -6.15625,-5.5 0.0067,-0.0102 4.673707,2.08894 7.53125,3.375 0.07097,-0.127 0.150656,-0.24621 0.21875,-0.375 -2.630301,-1.69318 -6.973729,-4.45757 -6.96875,-4.46875 0.005,-0.0111 4.943128,1.33246 7.96875,2.15625 0.0459,-0.12525 0.112949,-0.24851 0.15625,-0.375 -2.863358,-1.26111 -7.565668,-3.33193 -7.5625,-3.34375 0.0032,-0.0119 5.150686,0.53676 8.25,0.875 0.02589,-0.13331 0.03944,-0.27195 0.0625,-0.40625 -3.018219,-0.79583 -8.032533,-2.08155 -8.03125,-2.09375 0.0013,-0.0122 5.153291,-0.25492 8.28125,-0.40625 0.0055,-0.14557 0.0291,-0.29111 0.03125,-0.4375 -3.109859,-0.31428 -8.249359,-0.83151 -8.25,-0.84375 -6.4e-4,-0.0122 5.028478,-1.04881 8.09375,-1.6875 -0.01643,-0.13645 -0.04317,-0.27071 -0.0625,-0.40625 -3.129159,0.17662 -8.24746,0.4807 -8.25,0.46875 -0.0026,-0.012 4.831033,-1.83037 7.75,-2.9375 -0.03825,-0.13514 -0.08383,-0.27236 -0.125,-0.40625 -3.052504,0.66159 -8.089356,1.76145 -8.09375,1.75 -0.0044,-0.0114 4.429945,-2.56562 7.15625,-4.125 -0.05884,-0.12654 -0.12595,-0.25 -0.1875,-0.375 -2.930181,1.13842 -7.681411,3.01055 -7.6875,3 -0.0061,-0.0106 4.035662,-3.23325 6.46875,-5.1875 -0.07925,-0.11824 -0.168164,-0.22743 -0.25,-0.34375 -2.700061,1.57332 -7.148538,4.16577 -7.15625,4.15625 -0.0077,-0.009 3.421511,-3.80083 5.53125,-6.125 -0.09496,-0.10232 -0.184058,-0.21232 -0.28125,-0.3125 -2.428598,1.98289 -6.397174,5.22692 -6.40625,5.21875 -0.0091,-0.008 2.821395,-4.32741 4.53125,-6.9375 -0.106461,-0.0835 -0.235462,-0.13749 -0.34375,-0.21875 -2.087146,2.33684 -5.489751,6.16291 -5.5,6.15625 -0.01031,-0.007 2.127591,-4.75231 3.40625,-7.59375 -0.121644,-0.0679 -0.251714,-0.12229 -0.375,-0.1875 -1.688577,2.62302 -4.488785,7.00499 -4.5,7 -0.01117,-0.005 1.333192,-4.97699 2.15625,-8 -0.128016,-0.0468 -0.245701,-0.11221 -0.375,-0.15625 -1.260079,2.86096 -3.331917,7.59692 -3.34375,7.59375 -0.01183,-0.003 0.535766,-5.14216 0.875,-8.25 -0.133313,-0.0259 -0.271948,-0.0394 -0.40625,-0.0625 -0.798542,3.02885 -2.081592,8.00128 -2.09375,8 -0.01215,-10e-4 -0.254807,-5.11923 -0.40625,-8.25 -0.145567,-0.005 -0.291106,-0.0291 -0.4375,-0.0312 z"
         style="fill:#000000;fill-opacity:1;fill-rule:nonzero;stroke:none;filter:url(#filter3773)" />
    </g>
    <g
       transform="translate(186.68144,-0.96716001)"
       id="g3811">
      <path
         sodipodi:type="arc"
         style="fill:#ffffff;fill-opacity:1;fill-rule:nonzero;stroke:#000000;stroke-width:1;stroke-linecap:round;stroke-linejoin:miter;stroke-miterlimit:4;stroke-opacity:1;stroke-dasharray:none;stroke-dashoffset:0"
         id="path3813"
         sodipodi:cx="37.32143"
         sodipodi:cy="32.964287"
         sodipodi:rx="31.502871"
         sodipodi:ry="31.502871"
         d="m 68.824301,32.964287 c 0,17.398555 -14.104316,31.50287 -31.502871,31.50287 -17.398555,0 -31.5028704,-14.104315 -31.5028704,-31.50287 0,-17.398555 14.1043154,-31.5028708 31.5028704,-31.5028708 17.398555,0 31.502871,14.1043158 31.502871,31.5028708 z"
         transform="matrix(0.9999103,0,0,0.9999103,4.7705855e-4,796.36801)" />
      <path
         sodipodi:type="arc"
         style="fill:#ffff00;fill-opacity:1;fill-rule:nonzero;stroke:none;filter:url(#filter3763)"
         id="path3815"
         sodipodi:cx="49.585861"
         sodipodi:cy="39.890491"
         sodipodi:rx="25.013903"
         sodipodi:ry="25.013903"
         d="m 74.599764,39.890491 c 0,13.814797 -11.199106,25.013903 -25.013903,25.013903 -13.814797,0 -25.013902,-11.199106 -25.013902,-25.013903 0,-13.814796 11.199105,-25.013902 25.013902,-25.013902 13.814797,0 25.013903,11.199106 25.013903,25.013902 z"
         transform="translate(-12.267302,789.43885)" />
      <path
         style="fill:#000000;fill-opacity:1;fill-rule:nonzero;stroke:none;filter:url(#filter3773)"
         d="m 37.584185,810.50124 c -0.314306,3.11014 -0.800266,8.24936 -0.8125,8.25 -0.01222,6.4e-4 -1.08018,-5.02906 -1.71875,-8.09375 -0.136454,0.0164 -0.270711,0.0432 -0.40625,0.0625 0.176622,3.12916 0.4807,8.24746 0.46875,8.25 -0.01197,0.003 -1.827606,-4.82358 -2.9375,-7.75 -0.135142,0.0383 -0.272363,0.0838 -0.40625,0.125 0.663408,3.06057 1.761415,8.08937 1.75,8.09375 -0.01143,0.004 -2.572318,-4.47312 -4.125,-7.1875 -0.122516,0.057 -0.253932,0.0967 -0.375,0.15625 1.129644,2.90811 3.010631,7.74386 3,7.75 -0.0106,0.006 -3.229107,-4.03042 -5.1875,-6.46875 -0.117475,0.079 -0.228173,0.16847 -0.34375,0.25 1.577037,2.70633 4.165751,7.14856 4.15625,7.15625 -0.0095,0.008 -3.843684,-3.46346 -6.15625,-5.5625 -0.102199,0.0951 -0.212438,0.18394 -0.3125,0.28125 1.974154,2.41808 5.258209,6.39713 5.25,6.40625 -0.0082,0.009 -4.2882,-2.81609 -6.90625,-4.53125 -0.08873,0.11264 -0.163805,0.22906 -0.25,0.34375 2.335427,2.0859 6.16291,5.52099 6.15625,5.53125 -0.0067,0.0103 -4.674758,-2.12067 -7.53125,-3.40625 -0.0702,0.12561 -0.151369,0.24764 -0.21875,0.375 2.630301,1.69318 6.973729,4.45757 6.96875,4.46875 -0.005,0.0112 -4.976989,-1.33319 -8,-2.15625 -0.04912,0.13381 -0.07886,0.27103 -0.125,0.40625 2.873338,1.26541 7.565656,3.33197 7.5625,3.34375 -0.0032,0.0118 -5.142461,-0.56705 -8.25,-0.90625 -0.0261,0.13324 -0.03923,0.27202 -0.0625,0.40625 3.02815,0.79836 8.001278,2.11284 8,2.125 -0.0013,0.0122 -5.119638,0.25482 -8.25,0.40625 -0.005,0.13746 -0.02919,0.26806 -0.03125,0.40625 3.109859,0.31428 8.249359,0.83152 8.25,0.84375 6.42e-4,0.0123 -5.070673,1.051 -8.125,1.6875 0.01617,0.13653 0.04342,0.27063 0.0625,0.40625 3.118078,-0.17591 8.2787,-0.44949 8.28125,-0.4375 0.0025,0.012 -4.823576,1.82761 -7.75,2.9375 0.03904,0.13732 0.08294,0.27023 0.125,0.40625 3.06057,-0.66341 8.089368,-1.76141 8.09375,-1.75 0.0044,0.0114 -4.468265,2.53834 -7.1875,4.09375 0.05917,0.12767 0.125571,0.2489 0.1875,0.375 2.921711,-1.13505 7.712642,-2.97933 7.71875,-2.96875 0.0061,0.0106 -4.030423,3.22911 -6.46875,5.1875 0.07987,0.11881 0.167511,0.22689 0.25,0.34375 2.706327,-1.57704 7.148557,-4.16575 7.15625,-4.15625 0.0077,0.01 -3.462012,3.81086 -5.5625,6.125 0.09509,0.1022 0.183936,0.21244 0.28125,0.3125 2.416344,-1.97272 6.428376,-5.25821 6.4375,-5.25 0.0091,0.008 -2.814864,4.31761 -4.53125,6.9375 0.10361,0.0813 0.207158,0.17082 0.3125,0.25 2.084508,-2.33384 5.520987,-6.19416 5.53125,-6.1875 0.01026,0.007 -2.121751,4.70835 -3.40625,7.5625 0.127028,0.071 0.246179,0.15061 0.375,0.21875 1.692362,-2.629 4.488811,-6.97373 4.5,-6.96875 0.0112,0.005 -1.335384,4.98479 -2.15625,8 0.123856,0.0452 0.249944,0.0824 0.375,0.125 1.261114,-2.86336 3.331928,-7.56567 3.34375,-7.5625 0.01182,0.003 -0.56672,5.10839 -0.90625,8.21875 0.132885,0.026 0.272379,0.0393 0.40625,0.0625 0.798364,-3.02815 2.112839,-8.00128 2.125,-8 0.01216,10e-4 0.254937,5.1537 0.40625,8.28125 0.137455,0.005 0.268058,0.0292 0.40625,0.0312 0.314279,-3.10986 0.831515,-8.24936 0.84375,-8.25 0.01222,-6.4e-4 1.08018,5.02906 1.71875,8.09375 0.136095,-0.0164 0.271065,-0.0432 0.40625,-0.0625 -0.176622,-3.12916 -0.4807,-8.24746 -0.46875,-8.25 0.012,-0.003 1.830366,4.83103 2.9375,7.75 0.135578,-0.0384 0.271934,-0.0837 0.40625,-0.125 -0.661592,-3.0525 -1.761447,-8.08936 -1.75,-8.09375 0.0114,-0.004 2.537144,4.43488 4.09375,7.15625 0.131155,-0.0607 0.27675,-0.0926 0.40625,-0.15625 -1.130643,-2.91062 -3.010622,-7.71262 -3,-7.71875 0.01063,-0.006 3.233247,4.03566 5.1875,6.46875 0.116447,-0.0783 0.229168,-0.16921 0.34375,-0.25 -1.573318,-2.70006 -4.165774,-7.14854 -4.15625,-7.15625 0.0095,-0.008 3.768072,3.42012 6.09375,5.53125 0.103665,-0.0961 0.211024,-0.18284 0.3125,-0.28125 -1.982887,-2.4286 -5.226922,-6.39717 -5.21875,-6.40625 0.0082,-0.009 4.321436,2.81742 6.9375,4.53125 0.08771,-0.11152 0.164775,-0.23022 0.25,-0.34375 -2.336843,-2.08715 -6.162906,-5.48975 -6.15625,-5.5 0.0067,-0.0102 4.673707,2.08894 7.53125,3.375 0.07097,-0.127 0.150656,-0.24621 0.21875,-0.375 -2.630301,-1.69318 -6.973729,-4.45757 -6.96875,-4.46875 0.005,-0.0111 4.943128,1.33246 7.96875,2.15625 0.0459,-0.12525 0.112949,-0.24851 0.15625,-0.375 -2.863358,-1.26111 -7.565668,-3.33193 -7.5625,-3.34375 0.0032,-0.0119 5.150686,0.53676 8.25,0.875 0.02589,-0.13331 0.03944,-0.27195 0.0625,-0.40625 -3.018219,-0.79583 -8.032533,-2.08155 -8.03125,-2.09375 0.0013,-0.0122 5.153291,-0.25492 8.28125,-0.40625 0.0055,-0.14557 0.0291,-0.29111 0.03125,-0.4375 -3.109859,-0.31428 -8.249359,-0.83151 -8.25,-0.84375 -6.4e-4,-0.0122 5.028478,-1.04881 8.09375,-1.6875 -0.01643,-0.13645 -0.04317,-0.27071 -0.0625,-0.40625 -3.129159,0.17662 -8.24746,0.4807 -8.25,0.46875 -0.0026,-0.012 4.831033,-1.83037 7.75,-2.9375 -0.03825,-0.13514 -0.08383,-0.27236 -0.125,-0.40625 -3.052504,0.66159 -8.089356,1.76145 -8.09375,1.75 -0.0044,-0.0114 4.429945,-2.56562 7.15625,-4.125 -0.05884,-0.12654 -0.12595,-0.25 -0.1875,-0.375 -2.930181,1.13842 -7.681411,3.01055 -7.6875,3 -0.0061,-0.0106 4.035662,-3.23325 6.46875,-5.1875 -0.07925,-0.11824 -0.168164,-0.22743 -0.25,-0.34375 -2.700061,1.57332 -7.148538,4.16577 -7.15625,4.15625 -0.0077,-0.009 3.421511,-3.80083 5.53125,-6.125 -0.09496,-0.10232 -0.184058,-0.21232 -0.28125,-0.3125 -2.428598,1.98289 -6.397174,5.22692 -6.40625,5.21875 -0.0091,-0.008 2.821395,-4.32741 4.53125,-6.9375 -0.106461,-0.0835 -0.235462,-0.13749 -0.34375,-0.21875 -2.087146,2.33684 -5.489751,6.16291 -5.5,6.15625 -0.01031,-0.007 2.127591,-4.75231 3.40625,-7.59375 -0.121644,-0.0679 -0.251714,-0.12229 -0.375,-0.1875 -1.688577,2.62302 -4.488785,7.00499 -4.5,7 -0.01117,-0.005 1.333192,-4.97699 2.15625,-8 -0.128016,-0.0468 -0.245701,-0.11221 -0.375,-0.15625 -1.260079,2.86096 -3.331917,7.59692 -3.34375,7.59375 -0.01183,-0.003 0.535766,-5.14216 0.875,-8.25 -0.133313,-0.0259 -0.271948,-0.0394 -0.40625,-0.0625 -0.798542,3.02885 -2.081592,8.00128 -2.09375,8 -0.01215,-10e-4 -0.254807,-5.11923 -0.40625,-8.25 -0.145567,-0.005 -0.291106,-0.0291 -0.4375,-0.0312 z"
         id="path3817"
         inkscape:connector-curvature="0" />
    </g>
    <g
       transform="translate(-5.3185596,63.03284)"
       id="g4180">
      <path
         sodipodi:type="arc"
         style="fill:#ffffff;fill-opacity:1;fill-rule:nonzero;stroke:#000000;stroke-width:1;stroke-linecap:round;stroke-linejoin:miter;stroke-miterlimit:4;stroke-opacity:1;stroke-dasharray:none;stroke-dashoffset:0"
         id="path4182"
         sodipodi:cx="37.32143"
         sodipodi:cy="32.964287"
         sodipodi:rx="31.502871"
         sodipodi:ry="31.502871"
         d="m 68.824301,32.964287 c 0,17.398555 -14.104316,31.50287 -31.502871,31.50287 -17.398555,0 -31.5028704,-14.104315 -31.5028704,-31.50287 0,-17.398555 14.1043154,-31.5028708 31.5028704,-31.5028708 17.398555,0 31.502871,14.1043158 31.502871,31.5028708 z"
         transform="matrix(0.9999103,0,0,0.9999103,4.7705855e-4,796.36801)" />
      <text
         xml:space="preserve"
         style="font-size:50px;font-style:normal;font-weight:bold;line-height:125%;letter-spacing:0px;word-spacing:0px;fill:#000000;fill-opacity:1;stroke:none;font-family:Bitstream Vera Sans;-inkscape-font-specification:Bitstream Vera Sans Bold"
         x="19.92354"
         y="847.53003"
         id="text4188"
         sodipodi:linespacing="125%"><tspan
           sodipodi:role="line"
           id="tspan4190"
           x="19.92354"
           y="847.53003">0</tspan></text>
    </g>
    <g
       id="g4244"
       transform="matrix(0.99978261,0,0,0.99978261,112.6379,-28.941186)">
      <path
         transform="matrix(0.54077626,0,0,0.54077626,-37.805869,903.19138)"
         d="m -21,152.25 c 0,32.17059 -26.079413,58.25 -58.25,58.25 -32.17059,0 -58.25,-26.07941 -58.25,-58.25 0,-32.17059 26.07941,-58.25 58.25,-58.25 32.170587,0 58.25,26.07941 58.25,58.25 z"
         sodipodi:ry="58.25"
         sodipodi:rx="58.25"
         sodipodi:cy="152.25"
         sodipodi:cx="-79.25"
         id="path4242"
         style="fill:#ffffff;fill-opacity:1;fill-rule:nonzero;stroke:#000000;stroke-width:1.84838974;stroke-miterlimit:4;stroke-opacity:1;stroke-dasharray:none"
         sodipodi:type="arc" />
      <path
         sodipodi:type="star"
         style="fill:#000000;fill-opacity:1;fill-rule:nonzero;stroke:none;filter:url(#filter4238)"
         id="path4232"
         sodipodi:sides="40"
         sodipodi:cx="-53.5"
         sodipodi:cy="162"
         sodipodi:r1="53.967583"
         sodipodi:r2="17.72747"
         sodipodi:arg1="0.78539816"
         sodipodi:arg2="0.86393798"
         inkscape:flatsided="false"
         inkscape:rounded="0.0014779187"
         inkscape:randomized="0"
         d="m -15.339156,200.16084 c -0.03796,0.038 -26.606954,-24.71563 -26.647773,-24.68077 -0.04082,0.0349 20.251706,30.14907 20.208278,30.18062 -0.04343,0.0316 -22.413001,-28.57358 -22.458771,-28.54554 -0.04577,0.0281 15.286021,32.94595 15.238192,32.97032 -0.04783,0.0244 -17.667167,-31.72797 -17.716761,-31.70742 -0.04959,0.0205 9.943944,34.93158 9.892891,34.94817 -0.05105,0.0166 -12.486307,-34.10109 -12.538504,-34.08856 -0.0522,0.0125 4.357013,36.05709 4.303994,36.06549 -0.05302,0.008 -6.997994,-35.63454 -7.051509,-35.63033 -0.05351,0.004 -1.337201,36.29476 -1.390881,36.29476 -0.05368,0 -1.337367,-36.29055 -1.390881,-36.29476 -0.05351,-0.004 -6.99849,35.63873 -7.051509,35.63033 -0.05302,-0.008 4.356191,-36.05296 4.303994,-36.06549 -0.0522,-0.0125 -12.487451,34.10515 -12.538504,34.08856 -0.05105,-0.0166 9.942485,-34.92763 9.892891,-34.94817 -0.04959,-0.0206 -17.668931,31.73179 -17.716761,31.70742 -0.04783,-0.0244 15.283962,-32.94227 15.238192,-32.97032 -0.04577,-0.028 -22.415343,28.57709 -22.458771,28.54554 -0.04343,-0.0315 20.249097,-30.14575 20.208278,-30.18062 -0.04082,-0.0349 -26.609815,24.71873 -26.647773,24.68077 -0.03796,-0.0379 24.715632,-26.60695 24.68077,-26.64777 -0.03486,-0.0408 -30.149065,20.25171 -30.180617,20.20828 -0.03155,-0.0434 28.573585,-22.413 28.545538,-22.45877 -0.02805,-0.0458 -32.945947,15.28602 -32.970317,15.23819 -0.0244,-0.0478 31.727965,-17.66717 31.707423,-17.71676 -0.02054,-0.0496 -34.931583,9.94394 -34.948173,9.89289 -0.0166,-0.051 34.101092,-12.48631 34.088561,-12.5385 -0.01253,-0.0522 -36.057091,4.35701 -36.065491,4.30399 -0.008,-0.053 35.634539,-6.99799 35.630327,-7.05151 -0.0042,-0.0535 -36.294757,-1.3372 -36.294757,-1.39088 0,-0.0537 36.290546,-1.33737 36.294757,-1.39088 0.0042,-0.0535 -35.638727,-6.99849 -35.630327,-7.05151 0.008,-0.053 36.05296,4.35619 36.065491,4.30399 0.01253,-0.0522 -34.105151,-12.48745 -34.088561,-12.5385 0.0166,-0.0511 34.92763,9.94248 34.948173,9.89289 0.02054,-0.0496 -31.731793,-17.66893 -31.707423,-17.71676 0.0244,-0.0478 32.942269,15.28396 32.970317,15.23819 0.02805,-0.0458 -28.577091,-22.41534 -28.545539,-22.45877 0.03155,-0.0434 30.145755,20.2491 30.180618,20.20828 0.03486,-0.0408 -24.718727,-26.60982 -24.68077,-26.64777 0.03796,-0.038 26.606954,24.71563 26.647773,24.68077 0.04082,-0.0349 -20.251706,-30.14907 -20.208278,-30.18062 0.04343,-0.0315 22.413001,28.57358 22.458771,28.54554 0.04577,-0.0281 -15.286021,-32.94595 -15.238192,-32.97032 0.04783,-0.0244 17.667167,31.72797 17.716761,31.70742 0.04959,-0.0205 -9.943944,-34.93158 -9.892891,-34.94817 0.05105,-0.0166 12.486307,34.10109 12.538504,34.08856 0.0522,-0.0125 -4.357013,-36.05709 -4.303994,-36.06549 0.05302,-0.008 6.997994,35.63454 7.051509,35.63033 0.05351,-0.004 1.337201,-36.29476 1.390881,-36.29476 0.05368,0 1.337367,36.29055 1.390881,36.29476 0.05351,0.004 6.99849,-35.63873 7.051509,-35.63033 0.05302,0.008 -4.356191,36.05296 -4.303994,36.06549 0.0522,0.0125 12.487451,-34.10515 12.538504,-34.08856 0.05105,0.0166 -9.942485,34.92763 -9.892891,34.94817 0.04959,0.0206 17.668931,-31.73179 17.716761,-31.70742 0.04783,0.0244 -15.283962,32.94227 -15.238192,32.97032 0.04577,0.028 22.415343,-28.57709 22.458771,-28.54554 0.04343,0.0315 -20.249097,30.14575 -20.208278,30.18062 0.04082,0.0349 26.609815,-24.71873 26.647773,-24.68077 0.03796,0.0379 -24.715632,26.60695 -24.68077,26.64777 0.03486,0.0408 30.1490651,-20.25171 30.1806174,-20.20828 0.031552,0.0434 -28.5735854,22.413 -28.5455384,22.45877 0.02805,0.0458 32.945945,-15.28602 32.9703152,-15.23819 0.02437,0.0478 -31.7279632,17.66717 -31.7074212,17.71676 0.02054,0.0496 34.9315861,-9.94394 34.9481741,-9.89289 0.016588,0.051 -34.1010931,12.48631 -34.0885621,12.5385 0.01253,0.0522 36.05709576,-4.35701 36.06549318,-4.30399 0.008397,0.053 -35.63454118,6.99799 -35.63032918,7.05151 0.0042,0.0535 36.2947597,1.3372 36.2947597,1.39088 0,0.0537 -36.2905487,1.33737 -36.2947597,1.39088 -0.0042,0.0535 35.63872665,6.99849 35.63032923,7.05151 -0.008397,0.053 -36.05296223,-4.35619 -36.06549323,-4.30399 -0.01253,0.0522 34.1051503,12.48745 34.0885623,12.5385 -0.016588,0.0511 -34.9276313,-9.94248 -34.9481743,-9.89289 -0.02054,0.0496 31.7317916,17.66893 31.7074214,17.71676 -0.02437,0.0478 -32.9422674,-15.28396 -32.9703154,-15.23819 -0.02805,0.0458 28.577091,22.41534 28.5455387,22.45877 -0.031552,0.0434 -30.1457547,-20.2491 -30.1806177,-20.20828 -0.03486,0.0408 24.718727,26.60982 24.68077,26.64777 z"
         transform="matrix(0.49344687,0.22181881,-0.22181881,0.49344687,-18.314416,917.43957)" />
      <path
         transform="matrix(0.54101145,0,0,0.54101145,-51.704359,897.8668)"
         d="m -15.339156,200.16084 c -0.04879,0.0488 -33.364554,-32.65135 -33.417024,-32.60654 -0.05247,0.0448 27.033354,38.06583 26.977529,38.10639 -0.05582,0.0406 -27.845982,-37.46873 -27.904817,-37.43268 -0.05884,0.0361 20.74572,41.82613 20.684238,41.85746 -0.06148,0.0313 -21.641752,-41.3635 -21.705502,-41.3371 -0.06375,0.0264 13.947258,44.55653 13.881632,44.57785 -0.06563,0.0213 -14.904628,-44.23976 -14.971725,-44.22365 -0.0671,0.0161 6.805368,46.18979 6.737215,46.20058 -0.06815,0.0108 -7.800504,-46.02669 -7.869294,-46.02128 -0.06879,0.005 -0.504093,46.68571 -0.573096,46.68571 -0.069,0 -0.504305,-46.6803 -0.573096,-46.68571 -0.06879,-0.005 -7.80114,46.03208 -7.869294,46.02128 -0.06815,-0.0108 6.804311,-46.18447 6.737215,-46.20058 -0.0671,-0.0161 -14.906099,44.24497 -14.971725,44.22365 -0.06563,-0.0213 13.945382,-44.55144 13.881632,-44.57785 -0.06375,-0.0264 -21.64402,41.36843 -21.705502,41.3371 -0.06148,-0.0313 20.743073,-41.8214 20.684238,-41.85746 -0.05883,-0.0361 -27.848993,37.47324 -27.904817,37.43268 -0.05582,-0.0406 27.029999,-38.06158 26.977529,-38.10639 -0.05247,-0.0448 -33.368231,32.65534 -33.417024,32.60654 -0.04879,-0.0488 32.651358,-33.36455 32.606544,-33.41702 -0.04481,-0.0525 -38.065833,27.03335 -38.106391,26.97753 -0.04056,-0.0558 37.468731,-27.84598 37.432677,-27.90482 -0.03605,-0.0588 -41.826126,20.74572 -41.857456,20.68424 -0.0313,-0.0615 41.363502,-21.64175 41.337096,-21.7055 -0.02641,-0.0637 -44.556526,13.94726 -44.577846,13.88163 -0.0213,-0.0656 44.239762,-14.90463 44.223653,-14.97172 -0.01611,-0.0671 -46.189793,6.80536 -46.200583,6.73721 -0.0108,-0.0682 46.026693,-7.8005 46.021279,-7.86929 -0.0054,-0.0688 -46.685709,-0.5041 -46.685709,-0.5731 0,-0.069 46.680296,-0.50431 46.685709,-0.5731 0.0054,-0.0688 -46.032079,-7.80114 -46.021279,-7.86929 0.0108,-0.0682 46.184475,6.80431 46.200583,6.73721 0.01611,-0.0671 -44.244973,-14.90609 -44.223653,-14.97172 0.0213,-0.0656 44.55144,13.94538 44.577846,13.88163 0.02641,-0.0637 -41.368426,-21.64402 -41.337096,-21.7055 0.0313,-0.0615 41.821402,20.74307 41.857456,20.68424 0.03605,-0.0588 -37.473237,-27.84899 -37.432678,-27.90482 0.04056,-0.0558 38.061578,27.03 38.106392,26.97753 0.04481,-0.0525 -32.655336,-33.36823 -32.606544,-33.41702 0.04879,-0.0488 33.364554,32.65135 33.417024,32.60654 0.05247,-0.0448 -27.033354,-38.06583 -26.977529,-38.10639 0.05582,-0.0406 27.845982,37.46873 27.904817,37.43268 0.05884,-0.0361 -20.74572,-41.82613 -20.684238,-41.85746 0.06148,-0.0313 21.641752,41.3635 21.705502,41.3371 0.06375,-0.0264 -13.947258,-44.55653 -13.881632,-44.57785 0.06562,-0.0213 14.904628,44.23976 14.971725,44.22365 0.0671,-0.0161 -6.805368,-46.18979 -6.737215,-46.20058 0.06815,-0.0108 7.800504,46.02669 7.869294,46.02128 0.06879,-0.005 0.504093,-46.68571 0.573096,-46.68571 0.069,0 0.504305,46.6803 0.573096,46.68571 0.06879,0.005 7.80114,-46.03208 7.869294,-46.02128 0.06815,0.0108 -6.804311,46.18447 -6.737215,46.20058 0.0671,0.0161 14.906099,-44.24497 14.971725,-44.22365 0.06563,0.0213 -13.945382,44.55144 -13.881632,44.57785 0.06375,0.0264 21.64402,-41.36843 21.705502,-41.3371 0.06148,0.0313 -20.743073,41.8214 -20.684238,41.85746 0.05883,0.0361 27.848993,-37.47324 27.904817,-37.43268 0.05582,0.0406 -27.029999,38.06158 -26.977529,38.10639 0.05247,0.0448 33.368231,-32.65534 33.417024,-32.60654 0.04879,0.0488 -32.651358,33.36455 -32.606544,33.41702 0.04481,0.0525 38.0658326,-27.03335 38.1063914,-26.97753 0.040559,0.0558 -37.4687314,27.84598 -37.4326774,27.90482 0.03605,0.0588 41.8261275,-20.74572 41.8574542,-20.68424 0.031327,0.0615 -41.3635002,21.64175 -41.3370942,21.7055 0.02641,0.0637 44.5565241,-13.94726 44.5778471,-13.88163 0.021323,0.0656 -44.2397631,14.90463 -44.2236541,14.97172 0.01611,0.0671 46.18979075,-6.80536 46.20058518,-6.73721 0.0107944,0.0682 -46.02669518,7.8005 -46.02128118,7.86929 0.0054,0.0688 46.6857117,0.5041 46.6857117,0.5731 0,0.069 -46.6802987,0.50431 -46.6857117,0.5731 -0.0054,0.0688 46.03207566,7.80114 46.02128123,7.86929 -0.0107944,0.0682 -46.18447723,-6.80431 -46.20058523,-6.73721 -0.01611,0.0671 44.2449773,14.90609 44.2236543,14.97172 -0.021323,0.0656 -44.5514413,-13.94538 -44.5778473,-13.88163 -0.02641,0.0637 41.368421,21.64402 41.3370944,21.7055 -0.031327,0.0615 -41.8214004,-20.74307 -41.8574544,-20.68424 -0.03605,0.0588 37.4732365,27.84899 37.4326777,27.90482 -0.040559,0.0558 -38.0615777,-27.03 -38.1063917,-26.97753 -0.04481,0.0525 32.655336,33.36823 32.606544,33.41702 z"
         inkscape:randomized="0"
         inkscape:rounded="0.0014779187"
         inkscape:flatsided="false"
         sodipodi:arg2="0.86393798"
         sodipodi:arg1="0.78539816"
         sodipodi:r2="7.3043876"
         sodipodi:r1="53.967583"
         sodipodi:cy="162"
         sodipodi:cx="-53.5"
         sodipodi:sides="40"
         id="path4218"
         style="fill:#000000;fill-opacity:1;fill-rule:nonzero;stroke:none;filter:url(#filter4224)"
         sodipodi:type="star" />
      <path
         sodipodi:type="star"
         style="fill:#000000;fill-opacity:1;fill-rule:nonzero;stroke:none"
         id="path4228"
         sodipodi:sides="40"
         sodipodi:cx="-53.5"
         sodipodi:cy="162"
         sodipodi:r1="53.967583"
         sodipodi:r2="7.3043876"
         sodipodi:arg1="0.78539816"
         sodipodi:arg2="0.86393798"
         inkscape:flatsided="false"
         inkscape:rounded="0.0014779187"
         inkscape:randomized="0"
         d="m -15.339156,200.16084 c -0.04879,0.0488 -33.364554,-32.65135 -33.417024,-32.60654 -0.05247,0.0448 27.033354,38.06583 26.977529,38.10639 -0.05582,0.0406 -27.845982,-37.46873 -27.904817,-37.43268 -0.05884,0.0361 20.74572,41.82613 20.684238,41.85746 -0.06148,0.0313 -21.641752,-41.3635 -21.705502,-41.3371 -0.06375,0.0264 13.947258,44.55653 13.881632,44.57785 -0.06563,0.0213 -14.904628,-44.23976 -14.971725,-44.22365 -0.0671,0.0161 6.805368,46.18979 6.737215,46.20058 -0.06815,0.0108 -7.800504,-46.02669 -7.869294,-46.02128 -0.06879,0.005 -0.504093,46.68571 -0.573096,46.68571 -0.069,0 -0.504305,-46.6803 -0.573096,-46.68571 -0.06879,-0.005 -7.80114,46.03208 -7.869294,46.02128 -0.06815,-0.0108 6.804311,-46.18447 6.737215,-46.20058 -0.0671,-0.0161 -14.906099,44.24497 -14.971725,44.22365 -0.06563,-0.0213 13.945382,-44.55144 13.881632,-44.57785 -0.06375,-0.0264 -21.64402,41.36843 -21.705502,41.3371 -0.06148,-0.0313 20.743073,-41.8214 20.684238,-41.85746 -0.05883,-0.0361 -27.848993,37.47324 -27.904817,37.43268 -0.05582,-0.0406 27.029999,-38.06158 26.977529,-38.10639 -0.05247,-0.0448 -33.368231,32.65534 -33.417024,32.60654 -0.04879,-0.0488 32.651358,-33.36455 32.606544,-33.41702 -0.04481,-0.0525 -38.065833,27.03335 -38.106391,26.97753 -0.04056,-0.0558 37.468731,-27.84598 37.432677,-27.90482 -0.03605,-0.0588 -41.826126,20.74572 -41.857456,20.68424 -0.0313,-0.0615 41.363502,-21.64175 41.337096,-21.7055 -0.02641,-0.0637 -44.556526,13.94726 -44.577846,13.88163 -0.0213,-0.0656 44.239762,-14.90463 44.223653,-14.97172 -0.01611,-0.0671 -46.189793,6.80536 -46.200583,6.73721 -0.0108,-0.0682 46.026693,-7.8005 46.021279,-7.86929 -0.0054,-0.0688 -46.685709,-0.5041 -46.685709,-0.5731 0,-0.069 46.680296,-0.50431 46.685709,-0.5731 0.0054,-0.0688 -46.032079,-7.80114 -46.021279,-7.86929 0.0108,-0.0682 46.184475,6.80431 46.200583,6.73721 0.01611,-0.0671 -44.244973,-14.90609 -44.223653,-14.97172 0.0213,-0.0656 44.55144,13.94538 44.577846,13.88163 0.02641,-0.0637 -41.368426,-21.64402 -41.337096,-21.7055 0.0313,-0.0615 41.821402,20.74307 41.857456,20.68424 0.03605,-0.0588 -37.473237,-27.84899 -37.432678,-27.90482 0.04056,-0.0558 38.061578,27.03 38.106392,26.97753 0.04481,-0.0525 -32.655336,-33.36823 -32.606544,-33.41702 0.04879,-0.0488 33.364554,32.65135 33.417024,32.60654 0.05247,-0.0448 -27.033354,-38.06583 -26.977529,-38.10639 0.05582,-0.0406 27.845982,37.46873 27.904817,37.43268 0.05884,-0.0361 -20.74572,-41.82613 -20.684238,-41.85746 0.06148,-0.0313 21.641752,41.3635 21.705502,41.3371 0.06375,-0.0264 -13.947258,-44.55653 -13.881632,-44.57785 0.06562,-0.0213 14.904628,44.23976 14.971725,44.22365 0.0671,-0.0161 -6.805368,-46.18979 -6.737215,-46.20058 0.06815,-0.0108 7.800504,46.02669 7.869294,46.02128 0.06879,-0.005 0.504093,-46.68571 0.573096,-46.68571 0.069,0 0.504305,46.6803 0.573096,46.68571 0.06879,0.005 7.80114,-46.03208 7.869294,-46.02128 0.06815,0.0108 -6.804311,46.18447 -6.737215,46.20058 0.0671,0.0161 14.906099,-44.24497 14.971725,-44.22365 0.06563,0.0213 -13.945382,44.55144 -13.881632,44.57785 0.06375,0.0264 21.64402,-41.36843 21.705502,-41.3371 0.06148,0.0313 -20.743073,41.8214 -20.684238,41.85746 0.05883,0.0361 27.848993,-37.47324 27.904817,-37.43268 0.05582,0.0406 -27.029999,38.06158 -26.977529,38.10639 0.05247,0.0448 33.368231,-32.65534 33.417024,-32.60654 0.04879,0.0488 -32.651358,33.36455 -32.606544,33.41702 0.04481,0.0525 38.0658326,-27.03335 38.1063914,-26.97753 0.040559,0.0558 -37.4687314,27.84598 -37.4326774,27.90482 0.03605,0.0588 41.8261275,-20.74572 41.8574542,-20.68424 0.031327,0.0615 -41.3635002,21.64175 -41.3370942,21.7055 0.02641,0.0637 44.5565241,-13.94726 44.5778471,-13.88163 0.021323,0.0656 -44.2397631,14.90463 -44.2236541,14.97172 0.01611,0.0671 46.18979075,-6.80536 46.20058518,-6.73721 0.0107944,0.0682 -46.02669518,7.8005 -46.02128118,7.86929 0.0054,0.0688 46.6857117,0.5041 46.6857117,0.5731 0,0.069 -46.6802987,0.50431 -46.6857117,0.5731 -0.0054,0.0688 46.03207566,7.80114 46.02128123,7.86929 -0.0107944,0.0682 -46.18447723,-6.80431 -46.20058523,-6.73721 -0.01611,0.0671 44.2449773,14.90609 44.2236543,14.97172 -0.021323,0.0656 -44.5514413,-13.94538 -44.5778473,-13.88163 -0.02641,0.0637 41.368421,21.64402 41.3370944,21.7055 -0.031327,0.0615 -41.8214004,-20.74307 -41.8574544,-20.68424 -0.03605,0.0588 37.4732365,27.84899 37.4326777,27.90482 -0.040559,0.0558 -38.0615777,-27.03 -38.1063917,-26.97753 -0.04481,0.0525 32.655336,33.36823 32.606544,33.41702 z"
         transform="matrix(0.52257694,0.14002407,-0.14002407,0.52257694,-30.006706,908.34448)" />
      <path
         transform="matrix(0.47349529,0.26171664,-0.26171664,0.47349529,-12.918377,922.80626)"
         d="m -15.339156,200.16084 c -0.03796,0.038 -26.606954,-24.71563 -26.647773,-24.68077 -0.04082,0.0349 20.251706,30.14907 20.208278,30.18062 -0.04343,0.0316 -22.413001,-28.57358 -22.458771,-28.54554 -0.04577,0.0281 15.286021,32.94595 15.238192,32.97032 -0.04783,0.0244 -17.667167,-31.72797 -17.716761,-31.70742 -0.04959,0.0205 9.943944,34.93158 9.892891,34.94817 -0.05105,0.0166 -12.486307,-34.10109 -12.538504,-34.08856 -0.0522,0.0125 4.357013,36.05709 4.303994,36.06549 -0.05302,0.008 -6.997994,-35.63454 -7.051509,-35.63033 -0.05351,0.004 -1.337201,36.29476 -1.390881,36.29476 -0.05368,0 -1.337367,-36.29055 -1.390881,-36.29476 -0.05351,-0.004 -6.99849,35.63873 -7.051509,35.63033 -0.05302,-0.008 4.356191,-36.05296 4.303994,-36.06549 -0.0522,-0.0125 -12.487451,34.10515 -12.538504,34.08856 -0.05105,-0.0166 9.942485,-34.92763 9.892891,-34.94817 -0.04959,-0.0206 -17.668931,31.73179 -17.716761,31.70742 -0.04783,-0.0244 15.283962,-32.94227 15.238192,-32.97032 -0.04577,-0.028 -22.415343,28.57709 -22.458771,28.54554 -0.04343,-0.0315 20.249097,-30.14575 20.208278,-30.18062 -0.04082,-0.0349 -26.609815,24.71873 -26.647773,24.68077 -0.03796,-0.0379 24.715632,-26.60695 24.68077,-26.64777 -0.03486,-0.0408 -30.149065,20.25171 -30.180617,20.20828 -0.03155,-0.0434 28.573585,-22.413 28.545538,-22.45877 -0.02805,-0.0458 -32.945947,15.28602 -32.970317,15.23819 -0.0244,-0.0478 31.727965,-17.66717 31.707423,-17.71676 -0.02054,-0.0496 -34.931583,9.94394 -34.948173,9.89289 -0.0166,-0.051 34.101092,-12.48631 34.088561,-12.5385 -0.01253,-0.0522 -36.057091,4.35701 -36.065491,4.30399 -0.008,-0.053 35.634539,-6.99799 35.630327,-7.05151 -0.0042,-0.0535 -36.294757,-1.3372 -36.294757,-1.39088 0,-0.0537 36.290546,-1.33737 36.294757,-1.39088 0.0042,-0.0535 -35.638727,-6.99849 -35.630327,-7.05151 0.008,-0.053 36.05296,4.35619 36.065491,4.30399 0.01253,-0.0522 -34.105151,-12.48745 -34.088561,-12.5385 0.0166,-0.0511 34.92763,9.94248 34.948173,9.89289 0.02054,-0.0496 -31.731793,-17.66893 -31.707423,-17.71676 0.0244,-0.0478 32.942269,15.28396 32.970317,15.23819 0.02805,-0.0458 -28.577091,-22.41534 -28.545539,-22.45877 0.03155,-0.0434 30.145755,20.2491 30.180618,20.20828 0.03486,-0.0408 -24.718727,-26.60982 -24.68077,-26.64777 0.03796,-0.038 26.606954,24.71563 26.647773,24.68077 0.04082,-0.0349 -20.251706,-30.14907 -20.208278,-30.18062 0.04343,-0.0315 22.413001,28.57358 22.458771,28.54554 0.04577,-0.0281 -15.286021,-32.94595 -15.238192,-32.97032 0.04783,-0.0244 17.667167,31.72797 17.716761,31.70742 0.04959,-0.0205 -9.943944,-34.93158 -9.892891,-34.94817 0.05105,-0.0166 12.486307,34.10109 12.538504,34.08856 0.0522,-0.0125 -4.357013,-36.05709 -4.303994,-36.06549 0.05302,-0.008 6.997994,35.63454 7.051509,35.63033 0.05351,-0.004 1.337201,-36.29476 1.390881,-36.29476 0.05368,0 1.337367,36.29055 1.390881,36.29476 0.05351,0.004 6.99849,-35.63873 7.051509,-35.63033 0.05302,0.008 -4.356191,36.05296 -4.303994,36.06549 0.0522,0.0125 12.487451,-34.10515 12.538504,-34.08856 0.05105,0.0166 -9.942485,34.92763 -9.892891,34.94817 0.04959,0.0206 17.668931,-31.73179 17.716761,-31.70742 0.04783,0.0244 -15.283962,32.94227 -15.238192,32.97032 0.04577,0.028 22.415343,-28.57709 22.458771,-28.54554 0.04343,0.0315 -20.249097,30.14575 -20.208278,30.18062 0.04082,0.0349 26.609815,-24.71873 26.647773,-24.68077 0.03796,0.0379 -24.715632,26.60695 -24.68077,26.64777 0.03486,0.0408 30.1490651,-20.25171 30.1806174,-20.20828 0.031552,0.0434 -28.5735854,22.413 -28.5455384,22.45877 0.02805,0.0458 32.945945,-15.28602 32.9703152,-15.23819 0.02437,0.0478 -31.7279632,17.66717 -31.7074212,17.71676 0.02054,0.0496 34.9315861,-9.94394 34.9481741,-9.89289 0.016588,0.051 -34.1010931,12.48631 -34.0885621,12.5385 0.01253,0.0522 36.05709576,-4.35701 36.06549318,-4.30399 0.008397,0.053 -35.63454118,6.99799 -35.63032918,7.05151 0.0042,0.0535 36.2947597,1.3372 36.2947597,1.39088 0,0.0537 -36.2905487,1.33737 -36.2947597,1.39088 -0.0042,0.0535 35.63872665,6.99849 35.63032923,7.05151 -0.008397,0.053 -36.05296223,-4.35619 -36.06549323,-4.30399 -0.01253,0.0522 34.1051503,12.48745 34.0885623,12.5385 -0.016588,0.0511 -34.9276313,-9.94248 -34.9481743,-9.89289 -0.02054,0.0496 31.7317916,17.66893 31.7074214,17.71676 -0.02437,0.0478 -32.9422674,-15.28396 -32.9703154,-15.23819 -0.02805,0.0458 28.577091,22.41534 28.5455387,22.45877 -0.031552,0.0434 -30.1457547,-20.2491 -30.1806177,-20.20828 -0.03486,0.0408 24.718727,26.60982 24.68077,26.64777 z"
         inkscape:randomized="0"
         inkscape:rounded="0.0014779187"
         inkscape:flatsided="false"
         sodipodi:arg2="0.86393798"
         sodipodi:arg1="0.78539816"
         sodipodi:r2="17.72747"
         sodipodi:r1="53.967583"
         sodipodi:cy="162"
         sodipodi:cx="-53.5"
         sodipodi:sides="40"
         id="path4230"
         style="fill:#000000;fill-opacity:1;fill-rule:nonzero;stroke:none"
         sodipodi:type="star" />
    </g>
    <g
       id="g4279"
       transform="matrix(0.96969697,0,0,0.96969697,-17.454541,32.374611)">
      <path
         transform="translate(0,796.36218)"
         d="m 116.5,173 c 0,8.83656 -7.16344,16 -16,16 -8.836556,0 -16,-7.16344 -16,-16 0,-8.83656 7.163444,-16 16,-16 8.83656,0 16,7.16344 16,16 z"
         sodipodi:ry="16"
         sodipodi:rx="16"
         sodipodi:cy="173"
         sodipodi:cx="100.5"
         id="path4251"
         style="fill:#ffffff;fill-opacity:1;fill-rule:nonzero;stroke:#000000;stroke-width:1;stroke-linecap:round;stroke-linejoin:miter;stroke-miterlimit:4;stroke-opacity:1;stroke-dasharray:none;stroke-dashoffset:0"
         sodipodi:type="arc" />
      <path
         transform="matrix(1.1410256,0,0,1.1410256,-16.169868,769.39744)"
         d="m 110.18539,175.25 c 0,4.3826 -3.55279,7.93539 -7.93539,7.93539 -4.382597,0 -7.935393,-3.55279 -7.935393,-7.93539 0,-4.3826 3.552796,-7.93539 7.935393,-7.93539 4.3826,0 7.93539,3.55279 7.93539,7.93539 z"
         sodipodi:ry="7.9353933"
         sodipodi:rx="7.9353933"
         sodipodi:cy="175.25"
         sodipodi:cx="102.25"
         id="path4253"
         style="fill:#000000;fill-opacity:1;fill-rule:nonzero;stroke:#000000;stroke-width:1;stroke-linecap:round;stroke-linejoin:miter;stroke-miterlimit:4;stroke-opacity:1;stroke-dasharray:none;stroke-dashoffset:0;filter:url(#filter4275)"
         sodipodi:type="arc" />
    </g>
    <g
       id="g4194"
       transform="translate(58.68144,63.03284)">
      <path
         transform="matrix(0.9999103,0,0,0.9999103,4.7705855e-4,796.36801)"
         d="m 68.824301,32.964287 c 0,17.398555 -14.104316,31.50287 -31.502871,31.50287 -17.398555,0 -31.5028704,-14.104315 -31.5028704,-31.50287 0,-17.398555 14.1043154,-31.5028708 31.5028704,-31.5028708 17.398555,0 31.502871,14.1043158 31.502871,31.5028708 z"
         sodipodi:ry="31.502871"
         sodipodi:rx="31.502871"
         sodipodi:cy="32.964287"
         sodipodi:cx="37.32143"
         id="path4196"
         style="fill:#ffffff;fill-opacity:1;fill-rule:nonzero;stroke:#000000;stroke-width:1;stroke-linecap:round;stroke-linejoin:miter;stroke-miterlimit:4;stroke-opacity:1;stroke-dasharray:none;stroke-dashoffset:0"
         sodipodi:type="arc" />
      <text
         sodipodi:linespacing="125%"
         id="text4198"
         y="847.53003"
         x="19.92354"
         style="font-size:50px;font-style:normal;font-weight:bold;line-height:125%;letter-spacing:0px;word-spacing:0px;fill:#000000;fill-opacity:1;stroke:none;font-family:Bitstream Vera Sans;-inkscape-font-specification:Bitstream Vera Sans Bold"
         xml:space="preserve"><tspan
           y="847.53003"
           x="19.92354"
           id="tspan4200"
           sodipodi:role="line">1</tspan></text>
    </g>
    <g
       transform="translate(122.68144,63.03284)"
       id="g4202">
      <path
         sodipodi:type="arc"
         style="fill:#ffffff;fill-opacity:1;fill-rule:nonzero;stroke:#000000;stroke-width:1;stroke-linecap:round;stroke-linejoin:miter;stroke-miterlimit:4;stroke-opacity:1;stroke-dasharray:none;stroke-dashoffset:0"
         id="path4204"
         sodipodi:cx="37.32143"
         sodipodi:cy="32.964287"
         sodipodi:rx="31.502871"
         sodipodi:ry="31.502871"
         d="m 68.824301,32.964287 c 0,17.398555 -14.104316,31.50287 -31.502871,31.50287 -17.398555,0 -31.5028704,-14.104315 -31.5028704,-31.50287 0,-17.398555 14.1043154,-31.5028708 31.5028704,-31.5028708 17.398555,0 31.502871,14.1043158 31.502871,31.5028708 z"
         transform="matrix(0.9999103,0,0,0.9999103,4.7705855e-4,796.36801)" />
      <text
         xml:space="preserve"
         style="font-size:50px;font-style:normal;font-weight:bold;line-height:125%;letter-spacing:0px;word-spacing:0px;fill:#000000;fill-opacity:1;stroke:none;font-family:Bitstream Vera Sans;-inkscape-font-specification:Bitstream Vera Sans Bold"
         x="19.92354"
         y="847.53003"
         id="text4206"
         sodipodi:linespacing="125%"><tspan
           sodipodi:role="line"
           id="tspan4208"
           x="19.92354"
           y="847.53003">2</tspan></text>
    </g>
    <g
       id="g4210"
       transform="translate(186.68144,63.03284)">
      <path
         transform="matrix(0.9999103,0,0,0.9999103,4.7705855e-4,796.36801)"
         d="m 68.824301,32.964287 c 0,17.398555 -14.104316,31.50287 -31.502871,31.50287 -17.398555,0 -31.5028704,-14.104315 -31.5028704,-31.50287 0,-17.398555 14.1043154,-31.5028708 31.5028704,-31.5028708 17.398555,0 31.502871,14.1043158 31.502871,31.5028708 z"
         sodipodi:ry="31.502871"
         sodipodi:rx="31.502871"
         sodipodi:cy="32.964287"
         sodipodi:cx="37.32143"
         id="path4212"
         style="fill:#ffffff;fill-opacity:1;fill-rule:nonzero;stroke:#000000;stroke-width:1;stroke-linecap:round;stroke-linejoin:miter;stroke-miterlimit:4;stroke-opacity:1;stroke-dasharray:none;stroke-dashoffset:0"
         sodipodi:type="arc" />
      <text
         sodipodi:linespacing="125%"
         id="text4214"
         y="847.53003"
         x="19.92354"
         style="font-size:50px;font-style:normal;font-weight:bold;line-height:125%;letter-spacing:0px;word-spacing:0px;fill:#000000;fill-opacity:1;stroke:none;font-family:Bitstream Vera Sans;-inkscape-font-specification:Bitstream Vera Sans Bold"
         xml:space="preserve"><tspan
           y="847.53003"
           x="19.92354"
           id="tspan4216"
           sodipodi:role="line">3</tspan></text>
    </g>
    <g
       id="g4573"
       transform="matrix(0.14350213,0,0,0.14350213,130.0759,833.75885)">
      <path
         transform="translate(-11.05772,794.36181)"
         d="m -12.727913,171.50073 c 0,56.43076 -45.746171,102.17694 -102.176937,102.17694 -56.43076,0 -102.17693,-45.74618 -102.17693,-102.17694 0,-56.43076 45.74617,-102.176931 102.17693,-102.176931 56.430766,0 102.176937,45.746171 102.176937,102.176931 z"
         sodipodi:ry="102.17693"
         sodipodi:rx="102.17693"
         sodipodi:cy="171.50073"
         sodipodi:cx="-114.90485"
         id="path4541"
         style="fill:#ffffff;fill-opacity:1;fill-rule:nonzero;stroke:none;stroke-width:13.93707535999999969;stroke-linecap:round;stroke-linejoin:miter;stroke-miterlimit:4;stroke-opacity:1;stroke-dasharray:none;stroke-dashoffset:0"
         sodipodi:type="arc" />
      <path
         transform="translate(-4.3401983,785.52297)"
         d="m -83.438599,180.33957 c 0,21.08831 -17.095451,38.18377 -38.183771,38.18377 -21.08831,0 -38.18377,-17.09546 -38.18377,-38.18377 0,-21.08831 17.09546,-38.18377 38.18377,-38.18377 21.08832,0 38.183771,17.09546 38.183771,38.18377 z"
         sodipodi:ry="38.183769"
         sodipodi:rx="38.183769"
         sodipodi:cy="180.33957"
         sodipodi:cx="-121.62237"
         id="path4543"
         style="fill:#000000;fill-opacity:1;fill-rule:nonzero;stroke:none;filter:url(#filter4557);stroke-width:13.93707536;stroke-miterlimit:4;stroke-dasharray:none"
         sodipodi:type="arc" />
      <g
         transform="translate(-264.45794,2.421875e-6)"
         id="g4514"
         style="stroke-width:13.93707536;stroke-miterlimit:4;stroke-dasharray:none">
        <path
           inkscape:transform-center-y="36.964954"
           inkscape:transform-center-x="-31.189648"
           transform="matrix(0.70710678,-0.70710679,0.70710679,0.70710678,-79.290503,943.93869)"
           d="m 138.34069,169.22723 c 27.80366,14.28234 -2.68401,85.44075 -8.47531,97.54857"
           sodipodi:t0="0.92307031"
           sodipodi:argument="-18.064157"
           sodipodi:radius="98.000641"
           sodipodi:revolution="3.135783"
           sodipodi:expansion="49.560001"
           sodipodi:cy="169"
           sodipodi:cx="136.5"
           id="path4392"
           style="fill:none;stroke:#000000;stroke-width:13.93707528;stroke-linecap:butt;stroke-linejoin:miter;stroke-opacity:1;stroke-miterlimit:4;stroke-dasharray:none"
           sodipodi:type="spiral" />
        <path
           inkscape:transform-center-y="-10.289383"
           inkscape:transform-center-x="-47.985346"
           transform="matrix(-0.25881905,-0.96592583,0.96592583,-0.25881905,10.615838,1143.5087)"
           d="m 138.34069,169.22723 c 27.80366,14.28234 -2.68401,85.44075 -8.47531,97.54857"
           sodipodi:t0="0.92307031"
           sodipodi:argument="-18.064157"
           sodipodi:radius="98.000641"
           sodipodi:revolution="3.135783"
           sodipodi:expansion="49.560001"
           sodipodi:cy="169"
           sodipodi:cx="136.5"
           id="path4400"
           style="fill:none;stroke:#000000;stroke-width:13.93707529;stroke-linecap:butt;stroke-linejoin:miter;stroke-opacity:1;stroke-miterlimit:4;stroke-dasharray:none"
           sodipodi:type="spiral" />
        <path
           inkscape:transform-center-y="-45.711753"
           inkscape:transform-center-x="-13.663211"
           transform="matrix(-0.96592583,-0.25881904,0.25881904,-0.96592583,228.40167,1165.4325)"
           d="m 138.34069,169.22723 c 27.80366,14.28234 -2.68401,85.44075 -8.47531,97.54857"
           sodipodi:t0="0.92307031"
           sodipodi:argument="-18.064157"
           sodipodi:radius="98.000641"
           sodipodi:revolution="3.135783"
           sodipodi:expansion="49.560001"
           sodipodi:cy="169"
           sodipodi:cx="136.5"
           id="path4408"
           style="fill:none;stroke:#000000;stroke-width:13.93707533;stroke-linecap:butt;stroke-linejoin:miter;stroke-opacity:1;stroke-miterlimit:4;stroke-dasharray:none"
           sodipodi:type="spiral" />
        <path
           sodipodi:type="spiral"
           style="fill:none;stroke:#000000;stroke-width:13.93707533;stroke-linecap:butt;stroke-linejoin:miter;stroke-opacity:1;stroke-miterlimit:4;stroke-dasharray:none"
           id="path4410"
           sodipodi:cx="136.5"
           sodipodi:cy="169"
           sodipodi:expansion="49.560001"
           sodipodi:revolution="3.135783"
           sodipodi:radius="98.000641"
           sodipodi:argument="-18.064157"
           sodipodi:t0="0.92307031"
           d="m 138.34069,169.22723 c 27.80366,14.28234 -2.68401,85.44075 -8.47531,97.54857"
           transform="matrix(-0.96592583,-0.25881904,0.25881904,-0.96592583,228.40167,1165.4325)"
           inkscape:transform-center-x="-13.663211"
           inkscape:transform-center-y="-45.711753" />
        <path
           sodipodi:type="spiral"
           style="fill:none;stroke:#000000;stroke-width:13.93707528;stroke-linecap:butt;stroke-linejoin:miter;stroke-opacity:1;stroke-miterlimit:4;stroke-dasharray:none"
           id="path4420"
           sodipodi:cx="136.5"
           sodipodi:cy="169"
           sodipodi:expansion="49.560001"
           sodipodi:revolution="3.135783"
           sodipodi:radius="98.000641"
           sodipodi:argument="-18.064157"
           sodipodi:t0="0.92307031"
           d="m 138.34069,169.22723 c 27.80366,14.28234 -2.68401,85.44075 -8.47531,97.54857"
           transform="matrix(-0.70710678,0.70710679,-0.70710679,-0.70710678,356.28121,987.78641)"
           inkscape:transform-center-x="31.189672"
           inkscape:transform-center-y="-36.964935" />
        <path
           inkscape:transform-center-y="45.711713"
           inkscape:transform-center-x="13.663197"
           transform="matrix(0.96592583,0.25881904,-0.25881904,0.96592583,48.589077,766.29254)"
           d="m 138.34069,169.22723 c 27.80366,14.28234 -2.68401,85.44075 -8.47531,97.54857"
           sodipodi:t0="0.92307031"
           sodipodi:argument="-18.064157"
           sodipodi:radius="98.000641"
           sodipodi:revolution="3.135783"
           sodipodi:expansion="49.560001"
           sodipodi:cy="169"
           sodipodi:cx="136.5"
           id="path4426"
           style="fill:none;stroke:#000000;stroke-width:13.93707533;stroke-linecap:butt;stroke-linejoin:miter;stroke-opacity:1;stroke-miterlimit:4;stroke-dasharray:none"
           sodipodi:type="spiral" />
        <path
           inkscape:transform-center-y="10.289413"
           inkscape:transform-center-x="47.98532"
           transform="matrix(0.25881905,0.96592583,-0.96592583,0.25881905,266.37492,788.21641)"
           d="m 138.34069,169.22723 c 27.80366,14.28234 -2.68401,85.44075 -8.47531,97.54857"
           sodipodi:t0="0.92307031"
           sodipodi:argument="-18.064157"
           sodipodi:radius="98.000641"
           sodipodi:revolution="3.135783"
           sodipodi:expansion="49.560001"
           sodipodi:cy="169"
           sodipodi:cx="136.5"
           id="path4434"
           style="fill:none;stroke:#000000;stroke-width:13.93707529;stroke-linecap:butt;stroke-linejoin:miter;stroke-opacity:1;stroke-miterlimit:4;stroke-dasharray:none"
           sodipodi:type="spiral" />
      </g>
    </g>
    <path
       sodipodi:type="arc"
       style="fill:#ffffff;fill-opacity:1;fill-rule:nonzero;stroke:none;filter:url(#filter4623)"
       id="path4603"
       sodipodi:cx="100.5"
       sodipodi:cy="173"
       sodipodi:rx="16"
       sodipodi:ry="16"
       d="m 116.5,173 c 0,8.83656 -7.16344,16 -16,16 -8.836556,0 -16,-7.16344 -16,-16 0,-8.83656 7.163444,-16 16,-16 8.83656,0 16,7.16344 16,16 z"
       transform="matrix(0.91240876,0,0,0.91240876,52.302923,814.51547)" />
    <g
       id="g4672"
       transform="matrix(0.27506292,0,0,0.27506292,116.72823,693.83445)">
      <path
         id="rect4629"
         d="m 159.09375,159.84375 0,24.03125 0,0.0312 12.03125,0 0,20.3125 -12.03125,0 0,24.03125 12.03125,0 -0.0312,20.34375 -12,0 0,24.03125 24.0625,0 0,-12 20.3125,0 0,12 24.03125,0 0,-12 20.34375,0 0,12 24.03125,0 0,-24.03125 -12,0 -0.0312,-20.34375 12.03125,0 0,-24.03125 -12.03125,0 0,-20.3125 12.03125,0 0,-0.0312 0,-24.03125 -24.03125,0 0,12 -20.34375,0 0,-12 -24.03125,0 0,12 -20.3125,0 0,-12 -0.0312,0 -24.03125,0 z m 24.03125,24.03125 0.0312,0 20.3125,0 24.03125,0 20.34375,0 0,0.0312 0,20.3125 0,24.03125 0,20.34375 -20.34375,0 -24.03125,0 -20.3125,0 -0.0312,0 0,-20.34375 0,-24.03125 0,-20.3125 0,-0.0312 z"
         style="fill:#ffffff;fill-opacity:1;fill-rule:nonzero;stroke:#000000;stroke-width:3.55566716;stroke-miterlimit:4;stroke-opacity:1;stroke-dasharray:none"
         inkscape:connector-curvature="0"
         transform="translate(0,796.36218)" />
      <path
         inkscape:connector-curvature="0"
         style="fill:#000000;fill-opacity:1;fill-rule:nonzero;stroke:none"
         d="m 173.76621,970.87842 0,17.77848 0,0.0231 8.90079,0 0,15.0273 -8.90079,0 0,17.7786 8.90079,0 -0.0231,15.0504 -8.8777,0 0,17.7784 17.80161,0 0,-8.8776 15.02731,0 0,8.8776 17.77849,0 0,-8.8776 15.05044,0 0,8.8776 17.77848,0 0,-17.7784 -8.87768,0 -0.0231,-15.0504 8.9008,0 0,-17.7786 -8.9008,0 0,-15.0273 8.9008,0 0,-0.0231 0,-17.77848 -17.77848,0 0,8.87768 -15.05044,0 0,-8.87768 -17.77848,0 0,8.87768 -15.02733,0 0,-8.87768 -0.0231,0 -17.77849,0 z m 17.77849,17.77848 0.0232,0 15.02733,0 17.77847,0 15.05045,0 0,0.0231 0,15.0273 0,17.7786 0,15.0504 -15.05045,0 -17.77847,0 -15.02733,0 -0.0232,0 0,-15.0504 0,-17.7786 0,-15.0273 0,-0.0231 z"
         id="path4670" />
    </g>
    <g
       id="g4682"
       transform="translate(-17.17767,7.1274388)">
      <rect
         y="1029.7347"
         x="17.67767"
         height="15"
         width="15"
         id="rect4676"
         style="fill:#ff00ff;fill-opacity:1;fill-rule:nonzero;stroke:#000000;stroke-width:1;stroke-linecap:round;stroke-linejoin:miter;stroke-miterlimit:4;stroke-opacity:1;stroke-dasharray:none;stroke-dashoffset:0" />
      <text
         sodipodi:linespacing="125%"
         id="text4678"
         y="1041.6029"
         x="21.002865"
         style="font-size:12px;font-style:normal;font-weight:bold;line-height:125%;letter-spacing:0px;word-spacing:0px;fill:#000000;fill-opacity:1;stroke:none;font-family:Bitstream Vera Sans;-inkscape-font-specification:Bitstream Vera Sans Bold"
         xml:space="preserve"><tspan
           y="1041.6029"
           x="21.002865"
           id="tspan4680"
           sodipodi:role="line">0</tspan></text>
    </g>
    <g
       id="g4687"
       transform="translate(-1.1776695,7.1274388)">
      <rect
         style="fill:#ff00ff;fill-opacity:1;fill-rule:nonzero;stroke:#000000;stroke-width:1;stroke-linecap:round;stroke-linejoin:miter;stroke-miterlimit:4;stroke-opacity:1;stroke-dasharray:none;stroke-dashoffset:0"
         id="rect4689"
         width="15"
         height="15"
         x="17.67767"
         y="1029.7347" />
      <text
         xml:space="preserve"
         style="font-size:12px;font-style:normal;font-weight:bold;line-height:125%;letter-spacing:0px;word-spacing:0px;fill:#000000;fill-opacity:1;stroke:none;font-family:Bitstream Vera Sans;-inkscape-font-specification:Bitstream Vera Sans Bold"
         x="21.002865"
         y="1041.6029"
         id="text4691"
         sodipodi:linespacing="125%"><tspan
           sodipodi:role="line"
           id="tspan4693"
           x="21.002865"
           y="1041.6029">1</tspan></text>
    </g>
    <g
       transform="translate(14.82233,7.1274388)"
       id="g4695">
      <rect
         y="1029.7347"
         x="17.67767"
         height="15"
         width="15"
         id="rect4697"
         style="fill:#ff00ff;fill-opacity:1;fill-rule:nonzero;stroke:#000000;stroke-width:1;stroke-linecap:round;stroke-linejoin:miter;stroke-miterlimit:4;stroke-opacity:1;stroke-dasharray:none;stroke-dashoffset:0" />
      <text
         sodipodi:linespacing="125%"
         id="text4699"
         y="1041.6029"
         x="21.002865"
         style="font-size:12px;font-style:normal;font-weight:bold;line-height:125%;letter-spacing:0px;word-spacing:0px;fill:#000000;fill-opacity:1;stroke:none;font-family:Bitstream Vera Sans;-inkscape-font-specification:Bitstream Vera Sans Bold"
         xml:space="preserve"><tspan
           y="1041.6029"
           x="21.002865"
           id="tspan4701"
           sodipodi:role="line">2</tspan></text>
    </g>
    <g
       id="g4703"
       transform="translate(30.82233,7.1274388)">
      <rect
         style="fill:#ff00ff;fill-opacity:1;fill-rule:nonzero;stroke:#000000;stroke-width:1;stroke-linecap:round;stroke-linejoin:miter;stroke-miterlimit:4;stroke-opacity:1;stroke-dasharray:none;stroke-dashoffset:0"
         id="rect4705"
         width="15"
         height="15"
         x="17.67767"
         y="1029.7347" />
      <text
         xml:space="preserve"
         style="font-size:12px;font-style:normal;font-weight:bold;line-height:125%;letter-spacing:0px;word-spacing:0px;fill:#000000;fill-opacity:1;stroke:none;font-family:Bitstream Vera Sans;-inkscape-font-specification:Bitstream Vera Sans Bold"
         x="21.002865"
         y="1041.6029"
         id="text4707"
         sodipodi:linespacing="125%"><tspan
           sodipodi:role="line"
           id="tspan4709"
           x="21.002865"
           y="1041.6029">3</tspan></text>
    </g>
    <g
       transform="translate(46.82233,7.1274388)"
       id="g4711">
      <rect
         y="1029.7347"
         x="17.67767"
         height="15"
         width="15"
         id="rect4713"
         style="fill:#ff00ff;fill-opacity:1;fill-rule:nonzero;stroke:#000000;stroke-width:1;stroke-linecap:round;stroke-linejoin:miter;stroke-miterlimit:4;stroke-opacity:1;stroke-dasharray:none;stroke-dashoffset:0" />
      <text
         sodipodi:linespacing="125%"
         id="text4715"
         y="1041.6029"
         x="21.002865"
         style="font-size:12px;font-style:normal;font-weight:bold;line-height:125%;letter-spacing:0px;word-spacing:0px;fill:#000000;fill-opacity:1;stroke:none;font-family:Bitstream Vera Sans;-inkscape-font-specification:Bitstream Vera Sans Bold"
         xml:space="preserve"><tspan
           y="1041.6029"
           x="21.002865"
           id="tspan4717"
           sodipodi:role="line">4</tspan></text>
    </g>
    <g
       id="g4719"
       transform="translate(62.82233,7.1274388)">
      <rect
         style="fill:#ff00ff;fill-opacity:1;fill-rule:nonzero;stroke:#000000;stroke-width:1;stroke-linecap:round;stroke-linejoin:miter;stroke-miterlimit:4;stroke-opacity:1;stroke-dasharray:none;stroke-dashoffset:0"
         id="rect4721"
         width="15"
         height="15"
         x="17.67767"
         y="1029.7347" />
      <text
         xml:space="preserve"
         style="font-size:12px;font-style:normal;font-weight:bold;line-height:125%;letter-spacing:0px;word-spacing:0px;fill:#000000;fill-opacity:1;stroke:none;font-family:Bitstream Vera Sans;-inkscape-font-specification:Bitstream Vera Sans Bold"
         x="21.002865"
         y="1041.6029"
         id="text4723"
         sodipodi:linespacing="125%"><tspan
           sodipodi:role="line"
           id="tspan4725"
           x="21.002865"
           y="1041.6029">5</tspan></text>
    </g>
    <g
       transform="translate(94.82233,7.1274388)"
       id="g4727">
      <rect
         y="1029.7347"
         x="17.67767"
         height="15"
         width="15"
         id="rect4729"
         style="fill:#ff00ff;fill-opacity:1;fill-rule:nonzero;stroke:#000000;stroke-width:1;stroke-linecap:round;stroke-linejoin:miter;stroke-miterlimit:4;stroke-opacity:1;stroke-dasharray:none;stroke-dashoffset:0" />
      <text
         sodipodi:linespacing="125%"
         id="text4731"
         y="1041.6029"
         x="21.002865"
         style="font-size:12px;font-style:normal;font-weight:bold;line-height:125%;letter-spacing:0px;word-spacing:0px;fill:#000000;fill-opacity:1;stroke:none;font-family:Bitstream Vera Sans;-inkscape-font-specification:Bitstream Vera Sans Bold"
         xml:space="preserve"><tspan
           y="1041.6029"
           x="21.002865"
           id="tspan4733"
           sodipodi:role="line">7</tspan></text>
    </g>
    <g
       id="g4735"
       transform="translate(110.82233,7.1274388)">
      <rect
         style="fill:#ff00ff;fill-opacity:1;fill-rule:nonzero;stroke:#000000;stroke-width:1;stroke-linecap:round;stroke-linejoin:miter;stroke-miterlimit:4;stroke-opacity:1;stroke-dasharray:none;stroke-dashoffset:0"
         id="rect4737"
         width="15"
         height="15"
         x="17.67767"
         y="1029.7347" />
      <text
         xml:space="preserve"
         style="font-size:12px;font-style:normal;font-weight:bold;line-height:125%;letter-spacing:0px;word-spacing:0px;fill:#000000;fill-opacity:1;stroke:none;font-family:Bitstream Vera Sans;-inkscape-font-specification:Bitstream Vera Sans Bold"
         x="21.002865"
         y="1041.6029"
         id="text4739"
         sodipodi:linespacing="125%"><tspan
           sodipodi:role="line"
           id="tspan4741"
           x="21.002865"
           y="1041.6029">8</tspan></text>
    </g>
    <g
       transform="translate(126.82233,7.1274388)"
       id="g4743">
      <rect
         y="1029.7347"
         x="17.67767"
         height="15"
         width="15"
         id="rect4745"
         style="fill:#ff00ff;fill-opacity:1;fill-rule:nonzero;stroke:#000000;stroke-width:1;stroke-linecap:round;stroke-linejoin:miter;stroke-miterlimit:4;stroke-opacity:1;stroke-dasharray:none;stroke-dashoffset:0" />
      <text
         sodipodi:linespacing="125%"
         id="text4747"
         y="1041.6029"
         x="21.002865"
         style="font-size:12px;font-style:normal;font-weight:bold;line-height:125%;letter-spacing:0px;word-spacing:0px;fill:#000000;fill-opacity:1;stroke:none;font-family:Bitstream Vera Sans;-inkscape-font-specification:Bitstream Vera Sans Bold"
         xml:space="preserve"><tspan
           y="1041.6029"
           x="21.002865"
           id="tspan4749"
           sodipodi:role="line">9</tspan></text>
    </g>
    <g
       id="g4751"
       transform="translate(142.82233,7.1274388)">
      <rect
         style="fill:#ff00ff;fill-opacity:1;fill-rule:nonzero;stroke:#000000;stroke-width:1;stroke-linecap:round;stroke-linejoin:miter;stroke-miterlimit:4;stroke-opacity:1;stroke-dasharray:none;stroke-dashoffset:0"
         id="rect4753"
         width="15"
         height="15"
         x="17.67767"
         y="1029.7347" />
      <text
         xml:space="preserve"
         style="font-size:12px;font-style:normal;font-weight:bold;line-height:125%;letter-spacing:0px;word-spacing:0px;fill:#000000;fill-opacity:1;stroke:none;font-family:Bitstream Vera Sans;-inkscape-font-specification:Bitstream Vera Sans Bold"
         x="21.002865"
         y="1041.6029"
         id="text4755"
         sodipodi:linespacing="125%"><tspan
           sodipodi:role="line"
           id="tspan4757"
           x="21.002865"
           y="1041.6029">A</tspan></text>
    </g>
    <g
       transform="translate(78.82233,7.1274388)"
       id="g4759">
      <rect
         y="1029.7347"
         x="17.67767"
         height="15"
         width="15"
         id="rect4761"
         style="fill:#ff00ff;fill-opacity:1;fill-rule:nonzero;stroke:#000000;stroke-width:1;stroke-linecap:round;stroke-linejoin:miter;stroke-miterlimit:4;stroke-opacity:1;stroke-dasharray:none;stroke-dashoffset:0" />
      <text
         sodipodi:linespacing="125%"
         id="text4763"
         y="1041.6029"
         x="21.002865"
         style="font-size:12px;font-style:normal;font-weight:bold;line-height:125%;letter-spacing:0px;word-spacing:0px;fill:#000000;fill-opacity:1;stroke:none;font-family:Bitstream Vera Sans;-inkscape-font-specification:Bitstream Vera Sans Bold"
         xml:space="preserve"><tspan
           y="1041.6029"
           x="21.002865"
           id="tspan4765"
           sodipodi:role="line">6</tspan></text>
    </g>
    <g
       id="g4767"
       transform="translate(158.82233,7.1274388)">
      <rect
         style="fill:#ff00ff;fill-opacity:1;fill-rule:nonzero;stroke:#000000;stroke-width:1;stroke-linecap:round;stroke-linejoin:miter;stroke-miterlimit:4;stroke-opacity:1;stroke-dasharray:none;stroke-dashoffset:0"
         id="rect4769"
         width="15"
         height="15"
         x="17.67767"
         y="1029.7347" />
      <text
         xml:space="preserve"
         style="font-size:12px;font-style:normal;font-weight:bold;line-height:125%;letter-spacing:0px;word-spacing:0px;fill:#000000;fill-opacity:1;stroke:none;font-family:Bitstream Vera Sans;-inkscape-font-specification:Bitstream Vera Sans Bold"
         x="21.002865"
         y="1041.6029"
         id="text4771"
         sodipodi:linespacing="125%"><tspan
           sodipodi:role="line"
           id="tspan4773"
           x="21.002865"
           y="1041.6029">B</tspan></text>
    </g>
    <g
       transform="translate(174.82233,7.1274388)"
       id="g4775">
      <rect
         y="1029.7347"
         x="17.67767"
         height="15"
         width="15"
         id="rect4777"
         style="fill:#ff00ff;fill-opacity:1;fill-rule:nonzero;stroke:#000000;stroke-width:1;stroke-linecap:round;stroke-linejoin:miter;stroke-miterlimit:4;stroke-opacity:1;stroke-dasharray:none;stroke-dashoffset:0" />
      <text
         sodipodi:linespacing="125%"
         id="text4779"
         y="1041.6029"
         x="21.002865"
         style="font-size:12px;font-style:normal;font-weight:bold;line-height:125%;letter-spacing:0px;word-spacing:0px;fill:#000000;fill-opacity:1;stroke:none;font-family:Bitstream Vera Sans;-inkscape-font-specification:Bitstream Vera Sans Bold"
         xml:space="preserve"><tspan
           y="1041.6029"
           x="21.002865"
           id="tspan4781"
           sodipodi:role="line">C</tspan></text>
    </g>
    <g
       id="g4783"
       transform="translate(190.82233,7.1274388)">
      <rect
         style="fill:#ff00ff;fill-opacity:1;fill-rule:nonzero;stroke:#000000;stroke-width:1;stroke-linecap:round;stroke-linejoin:miter;stroke-miterlimit:4;stroke-opacity:1;stroke-dasharray:none;stroke-dashoffset:0"
         id="rect4785"
         width="15"
         height="15"
         x="17.67767"
         y="1029.7347" />
      <text
         xml:space="preserve"
         style="font-size:12px;font-style:normal;font-weight:bold;line-height:125%;letter-spacing:0px;word-spacing:0px;fill:#000000;fill-opacity:1;stroke:none;font-family:Bitstream Vera Sans;-inkscape-font-specification:Bitstream Vera Sans Bold"
         x="21.002865"
         y="1041.6029"
         id="text4787"
         sodipodi:linespacing="125%"><tspan
           sodipodi:role="line"
           id="tspan4789"
           x="21.002865"
           y="1041.6029">D</tspan></text>
    </g>
    <g
       transform="translate(206.82233,7.1274388)"
       id="g4791">
      <rect
         y="1029.7347"
         x="17.67767"
         height="15"
         width="15"
         id="rect4793"
         style="fill:#ff00ff;fill-opacity:1;fill-rule:nonzero;stroke:#000000;stroke-width:1;stroke-linecap:round;stroke-linejoin:miter;stroke-miterlimit:4;stroke-opacity:1;stroke-dasharray:none;stroke-dashoffset:0" />
      <text
         sodipodi:linespacing="125%"
         id="text4795"
         y="1041.6029"
         x="21.002865"
         style="font-size:12px;font-style:normal;font-weight:bold;line-height:125%;letter-spacing:0px;word-spacing:0px;fill:#000000;fill-opacity:1;stroke:none;font-family:Bitstream Vera Sans;-inkscape-font-specification:Bitstream Vera Sans Bold"
         xml:space="preserve"><tspan
           y="1041.6029"
           x="21.002865"
           id="tspan4797"
           sodipodi:role="line">E</tspan></text>
    </g>
    <g
       id="g4799"
       transform="translate(222.82233,7.1274388)">
      <rect
         style="fill:#ff00ff;fill-opacity:1;fill-rule:nonzero;stroke:#000000;stroke-width:1;stroke-linecap:round;stroke-linejoin:miter;stroke-miterlimit:4;stroke-opacity:1;stroke-dasharray:none;stroke-dashoffset:0"
         id="rect4801"
         width="15"
         height="15"
         x="17.67767"
         y="1029.7347" />
      <text
         xml:space="preserve"
         style="font-size:12px;font-style:normal;font-weight:bold;line-height:125%;letter-spacing:0px;word-spacing:0px;fill:#000000;fill-opacity:1;stroke:none;font-family:Bitstream Vera Sans;-inkscape-font-specification:Bitstream Vera Sans Bold"
         x="21.002865"
         y="1041.6029"
         id="text4803"
         sodipodi:linespacing="125%"><tspan
           sodipodi:role="line"
           id="tspan4805"
           x="21.002865"
           y="1041.6029">F</tspan></text>
    </g>
  </g>
</svg>
