<?xml version="1.0" encoding="UTF-8" standalone="no"?>
<!-- Created with Inkscape (http://www.inkscape.org/) -->

<svg
   xmlns:dc="http://purl.org/dc/elements/1.1/"
   xmlns:cc="http://creativecommons.org/ns#"
   xmlns:rdf="http://www.w3.org/1999/02/22-rdf-syntax-ns#"
   xmlns:svg="http://www.w3.org/2000/svg"
   xmlns="http://www.w3.org/2000/svg"
   xmlns:sodipodi="http://sodipodi.sourceforge.net/DTD/sodipodi-0.dtd"
   xmlns:inkscape="http://www.inkscape.org/namespaces/inkscape"
   width="256"
   height="256"
   id="svg2"
   version="1.1"
   inkscape:version="0.48.1 r9760"
   sodipodi:docname="face.svg">
  <defs
     id="defs4" />
  <sodipodi:namedview
     id="base"
     pagecolor="#ffffff"
     bordercolor="#666666"
     borderopacity="1.0"
     inkscape:pageopacity="0.0"
     inkscape:pageshadow="2"
     inkscape:zoom="1.4"
     inkscape:cx="42.269172"
     inkscape:cy="103.6375"
     inkscape:document-units="px"
     inkscape:current-layer="layer1"
     showgrid="false"
     inkscape:window-width="1280"
     inkscape:window-height="725"
     inkscape:window-x="0"
     inkscape:window-y="25"
     inkscape:window-maximized="1" />
  <metadata
     id="metadata7">
    <rdf:RDF>
      <cc:Work
         rdf:about="">
        <dc:format>image/svg+xml</dc:format>
        <dc:type
           rdf:resource="http://purl.org/dc/dcmitype/StillImage" />
        <dc:title></dc:title>
      </cc:Work>
    </rdf:RDF>
  </metadata>
  <g
     inkscape:label="Calque 1"
     inkscape:groupmode="layer"
     id="layer1"
     transform="translate(0,-796.36218)">
    <g
       id="g3759">
      <rect
         ry="35.714287"
         y="925.93359"
         x="23.285713"
         height="162.85715"
         width="81.428574"
         id="rect3757"
         style="fill:#008080;fill-opacity:1;fill-rule:nonzero;stroke:#000000;stroke-width:2;stroke-miterlimit:4;stroke-opacity:1;stroke-dasharray:none" />
      <path
         transform="translate(-1.7142868,782.79075)"
         d="m 119.02228,120.02228 a 53.307995,53.307995 0 1 1 -106.615988,0 53.307995,53.307995 0 1 1 106.615988,0 z"
         sodipodi:ry="53.307995"
         sodipodi:rx="53.307995"
         sodipodi:cy="120.02228"
         sodipodi:cx="65.714287"
         id="path3755"
         style="fill:#ffff00;fill-opacity:1;fill-rule:nonzero;stroke:#000000;stroke-width:2;stroke-miterlimit:4;stroke-opacity:1;stroke-dasharray:none"
         sodipodi:type="arc" />
      <path
         style="fill:#008080;fill-opacity:1;fill-rule:nonzero;stroke:#000000;stroke-width:2;stroke-linecap:round;stroke-linejoin:miter;stroke-miterlimit:4;stroke-opacity:1;stroke-dasharray:none;stroke-dashoffset:0"
         id="path3766"
         d="m 28.861197,111.47302 c 1.130416,2.66402 2.764058,5.12575 4.3598,7.53597 1.954074,3.12664 4.604446,5.43148 7.794504,7.20842 4.421109,2.08098 8.997647,3.85957 13.627625,5.4204 2.88273,0.73148 5.881843,1.90077 8.883006,1.25112 1.741748,-1.5983 3.703749,-2.95212 5.684311,-4.23826 2.476522,-1.48725 5.115085,-2.67007 7.688239,-3.97349 1.268948,-0.62007 1.645477,-1.69993 2.152595,-2.89955 2.574925,-6.04003 11.116823,-2.39853 8.541897,3.6415 l 0,0 c -1.411825,3.29165 -3.250249,5.83153 -6.506252,7.54558 -2.284174,1.15204 -4.615789,2.21342 -6.837736,3.48568 -3.048452,1.95607 -5.642686,4.6795 -9.249124,5.60653 -0.668294,0.0933 -1.331881,0.23099 -2.004883,0.27986 -3.870079,0.28103 -7.651751,-0.87875 -11.331196,-1.90413 -5.197436,-1.76791 -10.353801,-3.73967 -15.280688,-6.16744 -0.799121,-0.46975 -1.622645,-0.90026 -2.397363,-1.40924 -3.447222,-2.26483 -6.230995,-5.3214 -8.514713,-8.73176 -2.03366,-3.08923 -4.099671,-6.24416 -5.419224,-9.71479 -2.076349,-6.22905 6.732853,-9.16545 8.809202,-2.9364 z"
         inkscape:connector-curvature="0"
         transform="translate(0,796.36218)" />
      <path
         style="fill:#008080;fill-opacity:1;fill-rule:nonzero;stroke:#000000;stroke-width:2;stroke-linecap:round;stroke-linejoin:miter;stroke-miterlimit:4;stroke-opacity:1;stroke-dasharray:none;stroke-dashoffset:0"
         id="path3768"
         d="m 40.766281,85.447726 c 0.918906,-2.404591 2.161103,-4.911742 4.562268,-6.160878 0.638337,-0.332076 1.362353,-0.463667 2.04353,-0.695501 0.797059,0.02947 1.616441,-0.101196 2.391177,0.08842 3.059842,0.748912 4.631636,3.421985 5.934112,6.002842 1.395492,2.851887 1.674257,6.15871 -0.694546,8.654872 -0.557506,0.58748 -1.35083,0.89389 -2.026245,1.340835 -2.222177,0.863151 -4.684712,1.067026 -6.885998,-0.02422 -0.574595,-0.284844 -1.064945,-0.714893 -1.597418,-1.072339 -5.089383,-4.148546 0.777547,-11.34602 5.866929,-7.197474 l 0,0 c -0.26064,-0.112979 -1.328364,-0.657829 -1.452992,-0.05246 -0.864506,0.840657 -0.97666,0.77553 -1.382382,2.167771 -0.203447,0.698133 0.45768,1.734896 -0.121959,0.357206 -0.161798,-0.322651 -0.661011,-1.384948 -0.657531,-1.390372 0.07244,-0.112926 2.229829,0.857286 2.537521,0.211923 0.282795,-0.148068 0.590818,-0.255641 0.848385,-0.444206 0.155652,-0.113953 0.433129,-0.635547 0.30329,-0.492878 -0.418055,0.459365 -0.59921,1.094424 -0.858939,1.642849 -2.076349,6.229047 -10.885551,3.292646 -8.809202,-2.9364 z"
         inkscape:connector-curvature="0"
         transform="translate(0,796.36218)" />
      <path
         style="fill:#008080;fill-opacity:1;fill-rule:nonzero;stroke:#000000;stroke-width:2;stroke-linecap:round;stroke-linejoin:miter;stroke-miterlimit:4;stroke-opacity:1;stroke-dasharray:none;stroke-dashoffset:0"
         id="path3770"
         d="m 73.928572,91.830485 c 0.0053,-2.511163 0.229341,-5.255537 1.748739,-7.370006 0.384384,-0.534927 0.903073,-0.959193 1.35461,-1.43879 0.899895,-0.374995 1.733353,-0.996005 2.699684,-1.124983 3.533385,-0.471609 5.732079,2.270263 6.952236,5.089042 0.720158,2.076954 0.85545,4.256638 0.720047,6.430489 -0.553833,3.247465 -2.202031,5.410764 -4.880324,7.221753 -0.594052,0.23251 -1.161157,0.55152 -1.782156,0.69753 -2.633844,0.61928 -5.250889,-0.36707 -6.948675,-2.433422 -0.341418,-0.415534 -0.577008,-0.907745 -0.865513,-1.361618 -0.176039,-0.435201 -0.352078,-0.870403 -0.528118,-1.305605 -2.200443,-6.186299 6.548305,-9.298195 8.748748,-3.111896 l 0,0 c -0.02794,-0.01884 -0.05588,-0.03768 -0.08382,-0.05652 -0.938752,-0.903797 -2.327904,-1.162629 -3.41446,-0.332182 0.218288,0.283854 0.280118,-0.363284 0.509959,-0.193401 0.24922,-0.413679 -0.11553,-1.624319 -0.117151,-2.156664 0.266951,0.0502 0.929015,0.547387 1.276037,0.598886 2.210391,0.328028 1.841809,0.14027 3.741983,-0.898691 0.163414,-0.233665 0.358792,-0.447964 0.49024,-0.700996 0.05164,-0.0994 0.158808,-0.333303 0.04679,-0.332772 -0.304247,0.0014 -0.42527,2.539446 -0.383143,2.779846 0,6.565992 -9.285714,6.565992 -9.285714,0 z"
         inkscape:connector-curvature="0"
         transform="translate(0,796.36218)" />
    </g>
    <g
       id="g3772"
       transform="translate(128,0)">
      <rect
         style="fill:#008080;fill-opacity:1;fill-rule:nonzero;stroke:#000000;stroke-width:2;stroke-miterlimit:4;stroke-opacity:1;stroke-dasharray:none"
         id="rect3776"
         width="81.428574"
         height="162.85715"
         x="23.285713"
         y="925.93359"
         ry="35.714287" />
      <path
         sodipodi:type="arc"
         style="fill:#ffff00;fill-opacity:1;fill-rule:nonzero;stroke:#000000;stroke-width:2;stroke-miterlimit:4;stroke-opacity:1;stroke-dasharray:none"
         id="path3778"
         sodipodi:cx="65.714287"
         sodipodi:cy="120.02228"
         sodipodi:rx="53.307995"
         sodipodi:ry="53.307995"
         d="m 119.02228,120.02228 c 0,29.44119 -23.866801,53.30799 -53.307993,53.30799 -29.441193,0 -53.307995,-23.8668 -53.307995,-53.30799 0,-29.441195 23.866802,-53.307997 53.307995,-53.307997 29.441192,0 53.307993,23.866802 53.307993,53.307997 z"
         transform="translate(-1.7142868,782.79075)" />
      <path
         inkscape:connector-curvature="0"
         d="m 38.146911,935.28742 c 1.130416,-2.66402 2.764058,-5.12575 4.3598,-7.53597 1.954074,-3.12664 4.604446,-5.43148 7.794504,-7.20842 4.421109,-2.08098 8.997647,-3.85957 13.627625,-5.4204 2.88273,-0.73148 5.881843,-1.90077 8.883006,-1.25112 1.741748,1.5983 3.703749,2.95212 5.684311,4.23826 2.476522,1.48725 5.115085,2.67007 7.688239,3.97349 1.268948,0.62007 1.645477,1.69993 2.152595,2.89955 2.574925,6.04003 11.116823,2.39853 8.541897,-3.6415 l 0,0 c -1.411825,-3.29165 -3.250249,-5.83153 -6.506252,-7.54558 -2.284174,-1.15204 -4.615789,-2.21342 -6.837736,-3.48568 -3.048452,-1.95607 -5.642686,-4.6795 -9.249124,-5.60653 -0.668294,-0.0933 -1.331881,-0.23099 -2.004883,-0.27986 -3.870079,-0.28103 -7.651751,0.87875 -11.331196,1.90413 -5.197436,1.76791 -10.353801,3.73967 -15.280688,6.16744 -0.799121,0.46975 -1.622645,0.90026 -2.397363,1.40924 -3.447222,2.26483 -6.230995,5.3214 -8.514713,8.73176 -2.03366,3.08923 -4.099671,6.24416 -5.419224,9.71479 -2.076349,6.22905 6.732853,9.16545 8.809202,2.9364 z"
         id="path3780"
         style="fill:#008080;fill-opacity:1;fill-rule:nonzero;stroke:#000000;stroke-width:2;stroke-linecap:round;stroke-linejoin:miter;stroke-miterlimit:4;stroke-opacity:1;stroke-dasharray:none;stroke-dashoffset:0" />
      <path
         transform="translate(0,796.36218)"
         inkscape:connector-curvature="0"
         d="m 40.766281,85.447726 c 0.918906,-2.404591 2.161103,-4.911742 4.562268,-6.160878 0.638337,-0.332076 1.362353,-0.463667 2.04353,-0.695501 0.797059,0.02947 1.616441,-0.101196 2.391177,0.08842 3.059842,0.748912 4.631636,3.421985 5.934112,6.002842 1.395492,2.851887 1.674257,6.15871 -0.694546,8.654872 -0.557506,0.58748 -1.35083,0.89389 -2.026245,1.340835 -2.222177,0.863151 -4.684712,1.067026 -6.885998,-0.02422 -0.574595,-0.284844 -1.064945,-0.714893 -1.597418,-1.072339 -5.089383,-4.148546 0.777547,-11.34602 5.866929,-7.197474 l 0,0 c -0.26064,-0.112979 -1.328364,-0.657829 -1.452992,-0.05246 -0.864506,0.840657 -0.97666,0.77553 -1.382382,2.167771 -0.203447,0.698133 0.45768,1.734896 -0.121959,0.357206 -0.161798,-0.322651 -0.661011,-1.384948 -0.657531,-1.390372 0.07244,-0.112926 2.229829,0.857286 2.537521,0.211923 0.282795,-0.148068 0.590818,-0.255641 0.848385,-0.444206 0.155652,-0.113953 0.433129,-0.635547 0.30329,-0.492878 -0.418055,0.459365 -0.59921,1.094424 -0.858939,1.642849 -2.076349,6.229047 -10.885551,3.292646 -8.809202,-2.9364 z"
         id="path3782"
         style="fill:#008080;fill-opacity:1;fill-rule:nonzero;stroke:#000000;stroke-width:2;stroke-linecap:round;stroke-linejoin:miter;stroke-miterlimit:4;stroke-opacity:1;stroke-dasharray:none;stroke-dashoffset:0" />
      <path
         transform="translate(0,796.36218)"
         inkscape:connector-curvature="0"
         d="m 73.928572,91.830485 c 0.0053,-2.511163 0.229341,-5.255537 1.748739,-7.370006 0.384384,-0.534927 0.903073,-0.959193 1.35461,-1.43879 0.899895,-0.374995 1.733353,-0.996005 2.699684,-1.124983 3.533385,-0.471609 5.732079,2.270263 6.952236,5.089042 0.720158,2.076954 0.85545,4.256638 0.720047,6.430489 -0.553833,3.247465 -2.202031,5.410764 -4.880324,7.221753 -0.594052,0.23251 -1.161157,0.55152 -1.782156,0.69753 -2.633844,0.61928 -5.250889,-0.36707 -6.948675,-2.433422 -0.341418,-0.415534 -0.577008,-0.907745 -0.865513,-1.361618 -0.176039,-0.435201 -0.352078,-0.870403 -0.528118,-1.305605 -2.200443,-6.186299 6.548305,-9.298195 8.748748,-3.111896 l 0,0 c -0.02794,-0.01884 -0.05588,-0.03768 -0.08382,-0.05652 -0.938752,-0.903797 -2.327904,-1.162629 -3.41446,-0.332182 0.218288,0.283854 0.280118,-0.363284 0.509959,-0.193401 0.24922,-0.413679 -0.11553,-1.624319 -0.117151,-2.156664 0.266951,0.0502 0.929015,0.547387 1.276037,0.598886 2.210391,0.328028 1.841809,0.14027 3.741983,-0.898691 0.163414,-0.233665 0.358792,-0.447964 0.49024,-0.700996 0.05164,-0.0994 0.158808,-0.333303 0.04679,-0.332772 -0.304247,0.0014 -0.42527,2.539446 -0.383143,2.779846 0,6.565992 -9.285714,6.565992 -9.285714,0 z"
         id="path3784"
         style="fill:#008080;fill-opacity:1;fill-rule:nonzero;stroke:#000000;stroke-width:2;stroke-linecap:round;stroke-linejoin:miter;stroke-miterlimit:4;stroke-opacity:1;stroke-dasharray:none;stroke-dashoffset:0" />
    </g>
  </g>
</svg>
